<?xml version="1.0"?><svg id="Capa_2" xmlns="http://www.w3.org/2000/svg" viewBox="0 0 718.97 533.98"><defs></defs><g id="Capa_1-2"><path class="cls-2" d="M258.56,496.93c1.88-.97,2.8-2.93,2.8-5.97v-1.22c0-4.93-2.32-7.23-7.32-7.23h-7.45v30.87h7.75c4.9,0,7.49-2.58,7.49-7.45v-2.6c0-3.35-1.07-5.45-3.28-6.4ZM251.85,499.7h1.88c1.84,0,2.84.55,2.84,3.44v2.65c0,2.28-.89,2.75-2.23,2.75h-2.49v-8.84ZM256.09,491.91c0,2.08-.78,2.97-2.62,2.97h-1.62v-7.54h2.05c1.55,0,2.19.83,2.19,2.88v1.69Z"></path><path class="cls-2" d="M280.71,482.51h-6.88l-4.98,30.58-.05.28h4.93l.83-5.94h5.08l.82,5.94h5.28l-4.99-30.66-.03-.2ZM278.97,502.82h-3.73l1.85-13.31,1.89,13.31Z"></path><path class="cls-2" d="M308.22,509.44v-5.34c0-3.62-.89-5.65-2.88-6.49,1.91-.98,2.83-2.96,2.83-6.01v-1.87c0-4.93-2.33-7.23-7.32-7.23h-7.32v30.87h5.26v-13.02h1.4c2.08,0,2.75.85,2.75,3.49v5.55c0,2.47.17,2.99.45,3.81l.06.17h5.41l-.14-.34c-.47-1.1-.5-2.18-.5-3.59ZM298.8,487.34h1.92c1.55,0,2.19.83,2.19,2.88v2.34c0,2.08-.78,2.97-2.62,2.97h-1.49v-8.19Z"></path><path class="cls-2" d="M329.07,496.93c1.88-.97,2.8-2.93,2.8-5.97v-1.22c0-4.93-2.32-7.23-7.32-7.23h-7.45v30.87h7.75c4.9,0,7.49-2.58,7.49-7.45v-2.6c0-3.35-1.07-5.45-3.28-6.4ZM322.36,499.7h1.88c1.84,0,2.84.55,2.84,3.44v2.65c0,2.28-.89,2.75-2.23,2.75h-2.49v-8.84ZM326.6,491.91c0,2.08-.78,2.97-2.62,2.97h-1.62v-7.54h2.06c1.55,0,2.19.83,2.19,2.88v1.69Z"></path><polygon class="cls-2" points="340.71 513.37 354.21 513.37 354.21 508.55 345.97 508.55 345.97 499.7 352.52 499.7 352.52 494.88 345.97 494.88 345.97 487.34 354.21 487.34 354.21 482.51 340.71 482.51 340.71 513.37"></polygon><path class="cls-2" d="M377.04,509.44v-5.34c0-3.62-.89-5.65-2.88-6.49,1.91-.98,2.83-2.96,2.83-6.01v-1.87c0-4.93-2.33-7.23-7.32-7.23h-7.32v30.87h5.26v-13.02h1.4c2.08,0,2.75.85,2.75,3.49v5.55c0,2.47.17,2.99.45,3.81l.06.17h5.41l-.14-.34c-.46-1.1-.5-2.18-.5-3.59ZM367.62,487.34h1.92c1.55,0,2.19.83,2.19,2.88v2.34c0,2.08-.78,2.97-2.62,2.97h-1.49v-8.19Z"></path><rect class="cls-2" x="385.92" y="482.51" width="5.26" height="30.87"></rect><polygon class="cls-2" points="385.54 481.13 389.67 481.13 394.7 474.78 388.84 474.78 385.54 481.13"></polygon><path class="cls-2" d="M410.89,482.51h-6.88l-4.98,30.58-.05.28h4.93l.83-5.94h5.08l.82,5.94h5.28l-4.99-30.66-.03-.2ZM409.14,502.82h-3.73l1.85-13.31,1.89,13.31Z"></path><polygon class="cls-2" points="443.92 493.2 440.8 482.51 435.2 482.51 441.07 500.24 441.07 513.37 446.33 513.37 446.33 500.24 452.2 482.51 447.03 482.51 443.92 493.2"></polygon><polygon class="cls-2" points="472.83 513.37 486.34 513.37 486.34 508.55 478.09 508.55 478.09 499.7 484.65 499.7 484.65 494.88 478.09 494.88 478.09 487.34 486.34 487.34 486.34 482.51 472.83 482.51 472.83 513.37"></polygon><path class="cls-2" d="M503.09,495.89h0c-3.16-2.77-4.13-4.25-4.13-6.33,0-1.82.69-2.66,2.19-2.66,1,0,2.14.31,2.14,2.75v1.81h5v-1.5c0-5.08-2.55-7.88-7.19-7.88s-7.36,2.84-7.36,7.8c0,3.63,1.42,6.16,5.42,9.69,3.17,2.77,4.08,4.26,4.08,6.63,0,2.5-1.3,2.79-2.27,2.79-1.54,0-2.23-.83-2.23-2.71v-2.33h-5v1.98c0,5.08,2.58,7.88,7.27,7.88s7.45-2.83,7.45-7.97c0-3.9-1.36-6.41-5.38-9.95Z"></path><polygon class="cls-2" points="515.44 487.34 520.43 487.34 520.43 513.37 525.7 513.37 525.7 487.34 530.69 487.34 530.69 482.51 515.44 482.51 515.44 487.34"></polygon><rect class="cls-2" x="538.57" y="482.51" width="5.26" height="30.87"></rect><polygon class="cls-2" points="558.24 482.51 552.98 482.51 552.98 513.37 566.09 513.37 566.09 508.55 558.24 508.55 558.24 482.51"></polygon><path class="cls-2" d="M580.95,482.07c-4.76,0-7.49,2.87-7.49,7.88v15.97c0,5.01,2.73,7.88,7.49,7.88s7.49-2.87,7.49-7.88v-15.97c0-5.01-2.73-7.88-7.49-7.88ZM578.72,489.65c0-1.88.71-2.75,2.23-2.75s2.23.87,2.23,2.75v16.58c0,1.88-.71,2.75-2.23,2.75s-2.23-.87-2.23-2.75v-16.58Z"></path><path class="cls-1" d="M66.22,260.61l.23.11c2.08.9,3.85,1.72,5.3,2.45-.74-1.7-1.51-3.12-2.29-4.33-1.11-1.71-2.25-2.97-3.35-3.89-.7-.4-1.57-.86-2.58-1.35-.94-.46-2.02-.96-3.22-1.5.12,2.59,1.3,6.01,5.91,8.51Z"></path><path class="cls-1" d="M72.65,477.31v.3c-.01,1.01.44,1.85,1.33,3.13l.26.38.36.28c4.79,3.68,9.03,6.31,12.83,8,3.16-.15,6.33-.42,9.49-.79.25-.94.42-2.13.61-3.6.32-2.39.76-6.03,1.3-10.75,4.76-34.74,9.96-65.26,15.48-90.83,2.17,1.77,5.34,4.64,9.94,9.28l.32.28c.61.46,1.2.89,1.78,1.31,4.27,3.09,7.94,5.31,11.06,6.68,2.12.93,3.99,1.47,5.62,1.63l1.76.17.62-.94,1.21-1.82v-.89c0-1.15,0-2.11-5.18-7.56l-1.58,2.35-.27-.03-3.22-.31c-3.22-.31-7.01-1.78-11.61-4.52-.61-.36-1.24-.75-1.88-1.16-2-1.28-4.14-2.77-6.46-4.51l-.34-.26-.3-.31c-1.32-1.33-2.5-2.49-3.58-3.53-.89-.86-1.71-1.64-2.45-2.32-5.12,24.46-9.95,53.22-14.39,85.66-.54,4.75-.98,8.39-1.31,10.8-.17,1.28-.31,2.23-.43,2.91-.26,1.5-.76,2.6-1.36,3.43-.71.97-1.57,1.56-2.38,1.89l-1.52,1.02-1.99-.42-.42-.09c-3.12-.66-6.5-2.02-10.21-4.12-.98-.55-1.98-1.16-3-1.82-.04.37-.08.73-.11,1.04Z"></path><path class="cls-1" d="M17.21,444.82v-1.55l-.07-.92c.04-.3.07-.63.07-1v-.18c0-4.39.68-9.58,2.02-15.38,2.43-10.02,7.68-19.83,15.6-29.16,1.33-1.42,2.7-2.76,4.1-4.05,9.28-8.61,19.88-14.28,31.69-16.94,1.07-.24,2.16-.46,3.25-.66.1-1.01.19-2.01.28-3.02.1-1.01.19-2.02.28-3.02.05-.49.09-.99.14-1.48.07-.79.15-1.6.23-2.39-17.29,1.27-31.79,8.37-44.17,21.57-5.91,6.97-10.26,14.21-12.99,21.57-.77,2.09-1.43,4.18-1.94,6.29-.52,2.28-.94,4.44-1.25,6.5-.46,3-.69,5.76-.69,8.23v.18c0,.37-.02.72-.05,1.05l.03.38.02.24v1.8c0,2.6.18,5.19.52,7.77.65,4.89,1.92,9.74,3.8,14.51-.58-3.42-.87-6.87-.87-10.34Z"></path><path class="cls-1" d="M272.24,339.32c-.23-1.71-.51-3.45-.82-5.2h0c-.27-1.56-.56-3.14-.9-4.74-1.05-4.82-2.3-9.43-3.75-13.84-.07-.2-.13-.4-.2-.61.05.22.1.44.15.66h0c.09.41.19.81.28,1.23v.03s.01.03.01.03c1.14,5.52,1.94,10.83,2.4,15.9.15,1.68.26,3.32.34,4.94.08,1.61.12,3.19.13,4.74,0,.03,0,.06,0,.09v3.84c0,8.36-.81,16.77-2.41,25.21-.59,3.11-1.3,6.23-2.11,9.36-1.38,5.33-3.08,10.68-5.09,16.02-2.21,5.86-4.81,11.72-7.77,17.58-2.07,4.1-4.3,8.2-6.74,12.29l-.03.06-.04.06c-16.19,25.82-37.56,46.72-63.51,62.11-7.64,4.67-18.05,9.5-30.92,14.35l-.12.05-.12.04c-18.41,6.01-35.12,9.06-49.69,9.06h-6.21c-10.61,0-21.33-1.54-32.11-4.58-12.4-3.5-24.88-9.01-37.34-16.49-1.06-.64-2.12-1.27-3.18-1.93l-.06-.04-.06-.04c-2.37-1.57-4.65-3.36-6.81-5.37,4.29,6.19,9.26,11.19,14.87,14.89,11.41,7.16,22.84,12.61,34.2,16.37,12.4,4.1,24.72,6.19,36.87,6.19h6.21c14.25,0,30.66-3,48.78-8.91l.12-.04c12.72-4.79,22.96-9.54,30.42-14.1,14.39-8.53,27.36-18.79,38.79-30.67,8.87-9.22,16.82-19.41,23.8-30.55,5.98-10.03,10.83-20.09,14.56-30.13.87-2.34,1.66-4.67,2.4-7.01,2.69-8.45,4.58-16.88,5.66-25.28.71-5.54,1.09-11.05,1.09-16.54v-3.84c0-3.26-.18-6.67-.52-10.2-.16-1.63-.34-3.28-.57-4.96Z"></path><path class="cls-1" d="M88.11,257.56c.42.86.83,1.75,1.23,2.68,3.14-1.09,6.27-2.1,9.39-3.03,1.7-.51,3.4-1,5.1-1.46,1.19-.33,2.38-.63,3.57-.94.33-1.11.67-2.2,1.01-3.3.33-1.08.66-2.16.99-3.23.48-1.55.95-3.12,1.43-4.66-8.79,1.82-17.68,4.28-26.63,7.36.88,1.21,1.73,2.54,2.53,3.96.47.83.93,1.72,1.38,2.63Z"></path><path class="cls-1" d="M139.85,245.64l.62.53.09.13.36.54.55.82.98,1.46c3.7-.25,7.37-.38,11.02-.39.19,0,.37,0,.56,0,11.52,0,22.41,1.23,32.34,3.65.95.24,1.87.49,2.78.75,9.66,2.71,17.39,6.14,22.99,10.2l.3.22.35.14c.35.14,1.49.78,4.55,3.64.76.71,1.64,1.56,2.65,2.57-.54-.78-1.1-1.54-1.66-2.31-.59-.8-1.17-1.61-1.79-2.39-2.95-3.12-5.15-5.33-6.81-6.91-3-2.87-4.18-3.64-4.51-3.83l-.59-.23-.6-.44c-5.82-4.23-14.14-7.75-24.74-10.47-1.79-.44-3.62-.82-5.47-1.17-8.2-1.58-16.97-2.39-26.17-2.39-4.86,0-9.77.21-14.72.64,1.46.97,2.95,2.07,4.48,3.28.81.64,1.62,1.3,2.45,2Z"></path><path class="cls-1" d="M116.67,360.1c.84.57,1.7,1.16,2.6,1.81,7.68-33.03,16.58-66.02,26.52-98.18l.41-1.33-1.55-2.32-.31-.27c-1.18-1-2.33-1.92-3.46-2.78-.31,1-.61,2-.91,3-.31,1.01-.62,2.02-.92,3.03-9.41,31.29-17.84,63.28-25.09,95.28.03.02.06.04.09.06.84.52,1.72,1.1,2.62,1.7Z"></path><path class="cls-1" d="M330.33,430.95c-.48-.66-.91-1.34-1.3-2.03-.56-1-1.03-2.04-1.4-3.11-.49-1.41-.82-2.88-.98-4.39-2.81,3.67-6.84,8.13-12.17,13.51l-.14.14-.15.13c-3.96,3.49-7.64,6.12-11.1,7.93-2.9,1.52-5.64,2.47-8.24,2.84-.42.06-.84.11-1.26.14-.43.03-.86.05-1.28.05h-1.31l-1.18-.55c-1.86-.87-3.78-1.89-5.74-3.04-1.9-1.11-3.83-2.34-5.8-3.69,1.31,3.18,3.51,6.02,6.61,8.51l.14.1c3.57,2.53,7.03,4.66,10.33,6.36.7.36,1.4.71,2.09,1.03l.59.28h.65c5.6,0,12.12-3.35,19.94-10.23l.14-.13c1.2-1.21,2.32-2.36,3.38-3.47,3.64-3.81,6.5-7.07,8.6-9.83l-.2-.21-.24-.34Z"></path><path class="cls-1" d="M409.62,420.85l-.04.06-.05.06c-11.61,16.07-21.05,24.1-29.51,25.07-.58.07-1.16.1-1.74.1-.7,0-1.37-.09-2.03-.21-.65-.12-1.29-.3-1.9-.52-.07-.03-.14-.05-.21-.07-.89-.35-1.74-.79-2.53-1.3,0,0-.02-.01-.03-.02-.83-.54-1.62-1.15-2.35-1.81-1.09-.98-2.07-2.06-2.91-3.13-1.37,1.21-2.52,2.05-3.61,2.59-.09.04-.18.09-.27.13-2.74,1.84-5.64,2.78-8.63,2.78h-1.19c-.32,0-.65-.02-.97-.04-2.25-.15-4.6-.84-7.08-2.08-2.38-1.19-4.88-2.88-7.55-5.11.52,1.32,1.2,2.59,2.07,3.79l.27.32c5,5.17,9.41,8.65,13.33,10.51,2.26,1.08,4.37,1.61,6.32,1.61h1.19c2.45,0,4.85-.8,7.14-2.37.57-.21,1.35-.68,2.57-1.68.84-.69,1.9-1.64,3.26-2.95,2.23,3.39,4.46,5.75,6.73,7.12,1.58.95,3.17,1.43,4.79,1.43,5.43,0,11.68-3.84,18.94-11.67,3.13-3.38,6.45-7.48,9.97-12.36,1.3-1.9,2.57-3.83,3.83-5.79,1.11-1.73,2.19-3.5,3.27-5.28.07-2.03.22-4.22.46-6.6.24-2.44.57-5.06.98-7.89.35-2.36.76-4.87,1.23-7.51-1.46,2.74-2.96,5.43-4.5,8.07-2.95,5.09-6.02,10.02-9.23,14.72Z"></path><path class="cls-1" d="M469.28,366.4c1.54-.31,2.79-.99,3.71-2.02l.4-.45.19-.58c1.15-3.45,2.15-6.48,3.05-9.17,3.7-11.16,5.35-16.21,6.04-18.67.56-1.99.5-2.28.39-2.73l-.14-.59-.36-.48c-.38-.51-.83-1.08-1.33-1.71l-.26-.33-.34-.24c-.86-.61-1.7-1.19-2.53-1.74-.27.85-.58,1.81-.94,2.92-.02.06-.03.11-.05.17-.22.68-.46,1.42-.72,2.2-.06.18-.12.35-.18.54-1.48,4.54-3.49,10.6-5.97,18.09-.08.25-.16.49-.25.74l-.38,1.15-.81.91c-1.33,1.5-3.18,2.51-5.33,2.95l-.57.12h-.58c-.21,0-.42-.01-.63-.02-2.17-.11-4.47-.76-6.97-2.01,2.17,1.34,4.37,2.88,6.59,4.64.92.54,1.62,1.25,2.14,1.9.39.48.68.93.88,1.23l.94,1.45v1.24c1.21.38,2.36.57,3.44.57h.29l.29-.06Z"></path><path class="cls-1" d="M466.07,374.47c-.75-.6-1.5-1.16-2.25-1.71-.28,1.02-.56,2.04-.84,3.05-.28,1.03-.56,2.05-.83,3.06-3.05,11.38-5.59,21.91-7.59,31.46-.15.71-.3,1.43-.45,2.12-1.01,6.59-1.61,11.96-1.81,16.03.58-.4,1.21-.84,1.85-1.31.43-.31.87-.63,1.32-.98.64-.48,1.31-1,2.01-1.56.04-.26.08-.51.12-.77.36-1.76.74-3.57,1.14-5.4,2.54-11.69,5.84-24.77,9.85-38.98l.11-.39v-1.64l-.47-.73c-.42-.66-1.11-1.72-2.18-2.27Z"></path><path class="cls-1" d="M526.42,439.98l-.44-.46-.09-.09-.37-.67c-.41-.73-.77-1.53-1.1-2.37-.47-1.2-.87-2.51-1.2-3.95-.83.96-1.81,1.92-2.96,2.85-.81.66-1.69,1.31-2.68,1.94-5.59,3.6-13.49,6.39-24.15,8.54l-.11.02-.11.02c-1.82.29-3.67.44-5.5.44h-1.01c-1.03,0-2.11-.11-3.23-.32-.23-.04-.47-.09-.71-.14-.12-.03-.24-.05-.35-.08-.94-.22-1.92-.51-2.94-.88-.97-.35-1.97-.76-3.01-1.24-1.33-.62-2.73-1.35-4.18-2.19-.07.06-.13.11-.2.16-.78.64-1.54,1.25-2.3,1.83-.77.59-1.53,1.15-2.27,1.69-1.16.83-2.29,1.59-3.39,2.28-5.09,3.19-9.66,4.95-13.82,5.36-.63.06-1.26.1-1.87.1-.96,0-1.92-.07-2.89-.21-2.6-.37-5.22-1.25-7.9-2.62-2.01-1.03-4.05-2.35-6.12-3.96.39,1.2.84,2.28,1.37,3.23l.19.33.27.28c4.74,4.9,9.2,8.25,13.47,10.13,2.74,1.21,5.4,1.81,8.01,1.81,6.05,0,13.48-3.67,22.45-11.15.37-.3.74-.62,1.11-.94,2.56,1.57,4.9,2.8,7.05,3.69,2.91,1.21,5.46,1.82,7.67,1.82h1.01c1.67,0,3.36-.14,5.03-.4l.11-.02c11.74-2.36,20.17-5.58,25.4-9.72,1.37-1.08,2.52-2.23,3.46-3.44-.04-.04-.08-.07-.12-.11-.52-.51-1.04-1.03-1.56-1.57Z"></path><path class="cls-1" d="M534.04,358.41c-.33-.27-.66-.51-.99-.76-.09,1.3-.26,2.55-.5,3.77-.4,2.04-1.01,3.97-1.84,5.78-.93,2.03-2.12,3.91-3.57,5.64-.47.56-.96,1.1-1.48,1.62l-.87.87-1.15.45c-1.34.52-2.59.84-3.77.97-.4.04-.8.07-1.19.07-1.39,0-2.9-.31-4.94-1.34-.52-.26-1.07-.57-1.67-.93-.75-.45-1.56-1-2.45-1.63-.79-.56-1.64-1.2-2.57-1.93-.43,1.04-.68,2.09-.68,3.15v2.1c0,.29.02.64.08,1.04.13,1.02.47,2.42,1.22,4.32.51,1.3,1.21,2.83,2.16,4.63v-.17c0-2.49.94-5.03,2.81-7.6,6.53,5.47,9.56,6.94,11.5,7.26.34.06.65.08.93.08.73,0,1.51-.12,2.34-.34.25-1.16.5-2.34.77-3.54.25-1.13.5-2.27.77-3.43l.02-.07.02-.07c1.61-6.34,2.98-11.51,4.11-15.59.43-1.55.82-2.94,1.19-4.18l-.23-.18Z"></path><path class="cls-1" d="M559.08,424.64c.04-.26.08-.51.12-.77.81-3.96,1.72-8.11,2.72-12.41.75-3.26,1.56-6.6,2.42-10.04,1.74-6.96,3.69-14.28,5.85-21.93l.11-.39v-1.64l-.47-.73c-.42-.66-1.11-1.72-2.18-2.27-.75-.6-1.5-1.16-2.25-1.71-.28,1.02-.56,2.04-.84,3.05-.28,1.03-.56,2.05-.83,3.06-.94,3.5-1.82,6.91-2.66,10.25-1.62,6.42-3.07,12.56-4.32,18.32-.21.98-.41,1.93-.61,2.89-.08.38-.16.76-.24,1.13-.07.33-.14.67-.21.99-.02.11-.03.21-.05.32-.98,6.44-1.57,11.71-1.76,15.71.58-.4,1.21-.84,1.85-1.31,1.03-.74,2.14-1.59,3.34-2.53Z"></path><path class="cls-1" d="M575.73,449.42c-.47-.85-.89-1.77-1.27-2.75-.54-1.41-.99-2.97-1.35-4.65-1.05.85-2.07,1.65-3.08,2.39-1.48,1.1-2.92,2.08-4.33,2.96-5.09,3.19-9.66,4.95-13.82,5.36-.63.06-1.26.1-1.87.1-.96,0-1.92-.07-2.89-.21-2.6-.37-5.22-1.25-7.9-2.62-2.01-1.03-4.05-2.35-6.12-3.96.39,1.2.84,2.28,1.37,3.23l.19.33.27.28c4.74,4.9,9.19,8.25,13.47,10.13,2.74,1.21,5.4,1.81,8.01,1.81,4.9,0,10.7-2.41,17.48-7.29,1.13-.81,2.28-1.69,3.46-2.64-.14-.18-.29-.37-.43-.56-.42-.6-.82-1.24-1.19-1.91Z"></path><path class="cls-1" d="M584.63,332.77c-.09-.38-.27-.75-.56-1.14-1.25-1.72-2.65-2.76-4.4-3.93-.27.85-.59,1.81-.94,2.92-.02.06-.03.11-.05.17-.27.84-.57,1.76-.89,2.74-1.53,4.68-3.62,10.99-6.22,18.83l-.38,1.15-.81.91c-1.33,1.49-3.18,2.51-5.33,2.95l-.57.12h-.58c-.21,0-.42-.01-.63-.02-2.17-.11-4.47-.76-6.97-2.01,1.01.51,1.97,1.26,2.9,1.9,1.04.72,2.08,1.46,3.07,2.25,1.63,1.32,3.1,2.52,4.16,4.39.21.37.41.77.41,1.19,0,.2-.03.4.03.59.14.41,1.19.47,1.56.53.61.11,1.24.18,1.86.18h.29l.29-.06c1.54-.31,2.79-.99,3.71-2.02l.4-.45.19-.58c.88-2.65,1.68-5.05,2.41-7.25,1.81-5.46,3.64-10.91,5.39-16.39.6-1.88,1.33-3.8,1.68-5.75.08-.44.08-.82,0-1.19Z"></path><path class="cls-1" d="M651.96,522.93l-2.5,1.25-.13.06-.24.12-1.24.62h-2.27l-.51-.09c-.12-.02-.23-.05-.35-.07-3.27-.63-6.67-1.96-10.27-4.01-1.97-1.12-4-2.46-6.09-4.02,1.26,2.2,2.61,4.28,4.06,6.23l.21.28.27.22c4.91,4.11,9.39,7,13.56,8.74,1.91.8,3.75,1.35,5.53,1.67l1.57.05,2.61-1.3v-3.33l-.57-.78c-1.29-1.75-2.5-3.64-3.62-5.64Z"></path><path class="cls-1" d="M650.99,381.67c.26-1.29.52-2.58.8-3.88.34-1.48.7-2.96,1.04-4.44,8.5-36.68,18.56-73.31,29.95-108.95l.14-.44v-.46c0-1.4-.84-2.52-2.73-4.49l-.21-.22-.25-.17c-.63-.44-1.23-.84-1.81-1.24-.31.97-.61,1.95-.92,2.93-.31.98-.61,1.95-.92,2.93-10.54,33.87-19.9,68.53-27.81,103.22-.32,1.53-.63,3.05-.94,4.56-1.06,5.23-2.05,10.35-2.94,15.33-.77,4.31-1.48,8.53-2.13,12.66,1.1-3.08,2.49-6.24,4.17-9.47,1.34-2.58,2.85-5.2,4.56-7.87Z"></path><path class="cls-1" d="M637.81,469.7c.89,11.7,2.89,21.79,5.96,30.24-2.03-9.66-3.06-20.76-3.06-33.29,0-9.35.57-19.61,1.7-30.71.21-2.08.44-4.19.69-6.32l-.08-.11c-.95-1.35-1.73-2.85-2.34-4.47-.6-1.6-1.02-3.33-1.27-5.18-.38,3.33-.7,6.58-.97,9.76-.78,8.97-1.18,17.36-1.18,25.1,0,5.26.19,10.25.55,14.99Z"></path><path class="cls-1" d="M634.62,285.83c.83-2.84,1.63-5.59,2.42-8.26.31-1.06.62-2.12.93-3.15-.66-.5-1.3-.97-1.94-1.44-.29,1-.58,2.02-.86,3.01-.29,1.01-.57,2.01-.85,3.02-9.03,31.86-16.13,59.9-21.28,84.03-4.24,19.87-7.15,37.09-8.73,51.58-.44,4.08-.78,7.95-1.01,11.59-.29,4.62-.42,8.9-.37,12.82v.04s0,.04,0,.04c0,3.03.18,5.73.52,8.13.43,3.04,1.12,5.59,2.09,7.57l.59,1.22v1.53c0,1.74-.68,3.28-1.78,4.4-.73.74-1.65,1.29-2.69,1.59-.56.16-1.15.25-1.77.25h-.28l-.28-.03c-.3-.03-.61-.07-.92-.12-2.99-.46-6.46-1.83-10.59-4.19-1.43-.82-2.95-1.76-4.55-2.82.89,2.64,2.09,4.76,3.62,6.37l.19.2.22.16c5.05,3.64,9.31,6.21,12.86,7.74,1.76.76,3.34,1.26,4.76,1.51.37.07.73.12,1.08.15h.28c.79.01,1.5-.26,2.06-.71-.62-4.06-1.11-8.29-1.43-12.71-.34-2.5-.52-5.27-.52-8.35-.02-1.22,0-2.49,0-3.78-.01-1.06-.04-2.11-.04-3.19,0-19.94,2.48-43.55,7.39-70.64,4.72-26.03,11.69-55.27,20.88-87.56Z"></path><path class="cls-1" d="M670.36,421.6c4.91-1.44,8.6-5.24,11.51-9.28,2.91-4.04,6.16-8.71,7.08-13.67.28-1.53.42-3.09.42-4.68v-2.38c0-.83-.07-1.74-.22-2.72-.74.54-1.49,1.14-2.22,1.8-.72.64-1.44,1.33-2.16,2.08-1.52,1.58-3.02,3.39-4.49,5.43-2.54,3.99-4.87,8.13-6.74,12.48-1.31,3.05-3.5,7.56-3.18,10.94Z"></path><path class="cls-1" d="M718.83,384.52c-.56-2.2-2.45-3.64-6.12-4.51-.76.82-1.61,1.55-2.46,2.2.02.11.04.22.07.32.23,1.04.42,2.07.59,3.09.09.54.17,1.07.23,1.6.14,1.12.26,2.24.32,3.35.05.87.08,1.73.08,2.58,0,1.49-.07,2.98-.19,4.46-.35,4.32-1.21,8.63-2.57,12.9-1.13,3.56-2.61,7.09-4.44,10.58-1.59,3.28-4.78,7.09-10.01,11.97l-.11.11-.12.1c-4.31,3.62-8.73,6.35-13.23,8.18-4.25,1.73-8.57,2.65-12.93,2.76-.3,0-.6.02-.91.02-.62,0-1.24-.05-1.87-.11-2.35-.25-4.75-.98-7.21-2.19-2.54-1.25-5.14-3.02-7.82-5.31.47,1.12,1.03,2.18,1.7,3.13l.21.27c5.07,5.66,9.74,9.46,14.12,11.48,2.5,1.15,4.92,1.73,7.25,1.73,8.59,0,17.06-3.46,25.18-10.28l.12-.1c1.78-1.67,3.32-3.21,4.62-4.63,2.29-2.51,3.87-4.66,4.76-6.52,4.57-8.71,6.89-17.67,6.89-26.62,0-3.92-.57-8.01-1.69-12.2,3.49-2.29,6.38-5.03,5.54-8.37Z"></path><path class="cls-2" d="M68.82,151.7l.06.2s.03.09.05.14c.09.27.23.72.72,1.11.29.14.73.51.96.72.12.33.44.62.79.74.04.09.08.16.12.24.04.07.09.16.09.17v.15s.11.12.11.12c.26.32.74.64,1.33.64.05,0,.1,0,.15,0l.66-.06.13-.16c.12-.14.22-.15.37-.17l4.46-.43c.62-.06,1.22-.14,1.85-.22.65-.09,1.32-.17,2.07-.24l2.28-.22c.28-.03.58-.21,1.09-.52l.32-.2c.45-.02.9-.04,1.34-.05,1.11-.04,2.26-.08,3.41-.19l1.73-.16c.33-.03,1.02-.1,3.25-.14.21.12.49.16.7.13.16-.01.32-.06.49-.1.11-.03.22-.06.33-.07l.93-.45v.07c.18.02.44.06.69.03.18-.02.38-.04.56-.16.09-.07.2-.17.25-.34l.07.05h.17c.2-.03.34-.12.45-.21.17.05.47.11.92.06l.66-.06.11-.28c.06-.16.06-.32.04-.52l.2-.24.35-.03-.58-.71c-.14-.17-.32-.27-.49-.33l-.65-.53s-.11-.09-.17-.16c-.13-.14-.33-.35-.64-.38-2.53-1.11-4.55-1.61-5.99-1.46l-.35.03c-.62-.2-1.19-.16-1.8-.1-1.47-.26-3.07-.16-4.57-.02l-3.37.32c-1.45.14-2.89.34-4.42.56-1.52.21-3.1.44-4.66.59-1.54.15-3.1.2-4.67.17-.22.02-.34.03-.99-.22l-.11-.04h-.12c-.41.05-1.52.78-1.43,1.74.03.31.2.48.33.59.06.34.27.51.43.62Z"></path><path class="cls-2" d="M68.12,202.97c.04.38.07.7.2,1,2.1,6.18,7.26,7.47,11.91,7.47,1.06,0,2.09-.07,3.05-.16,1.05-.1,3.6-.45,5.14-1.5,2.23-.29,5.49-2.46,5.97-2.83.25-.15.54-.49.93-.94.15-.17.28-.33.32-.37h.02s-.21-.34-.21-.34c.04-.04.07-.07.1-.11l.13-.16v-.08c.07-.08.2-.19.22-.21.22-.02.53-.17.67-.52.02-.04.05-.1.01-.1h0l.21-.07s2.09-1.76,1.88-2.38l-.14-.37-.23.02c.07-.16.12-.36.09-.62l-.11-1.18-.87,1.05-.18.02c.02-.1.03-.21.02-.34l-.05-.49h-.01c.02-.11.01-.23-.07-.36l-.17-.26h-.14s-.06-.08-.09-.13l-.15-.29-.33.03c-.79.07-1.91,2.28-1.9,2.28-1.36,1.91-7.38,4.67-12.46,5.15-1.31.12-5.64.26-5.98-3.26-.51-5.32.72-10.81,1.91-16.12l.41-1.87.02-.58s.1-.01.17-.02c.34-.1.64-.17.91-.23.5-.12.98-.23,1.51-.46,2.43-.39,4.13-.79,6.28-1.29l.93-.22c1.63-.16,4.31-.74,6.07-1.52l1.53-.68c.45-.07.9-.14,1.35-.21,1.55-.24,3.14-.49,4.81-.65l3.16-.3-1.73-.75c-.58-.25-.7-.35-.7-.33,0-.05-.01-.1-.02-.15l1.28-.12-.73-.73c-1.93-1.93-8.41-1.49-14.34-.92l-.46.04c-3.34.32-5.25.59-8.28,1.18.09-.39.16-.69.3-1.14.53-2.2,1.02-4.38,1.68-7.53l.03-.11v-.07c.02-.1.04-.22.03-.22.4-1.87,1.35-6.25,1.12-8.59-.05-.54-.08-.87-.21-1.12-.45-1.72-2.91-2.66-4.39-2.51-1.89.18-3.05,1.1-3.1,2.53.04.38.07.73.34.99-.15,4.53-3.05,15.3-4.14,19.3-1.02.24-1.93,1.06-2.19,2-.12.23-.1.5-.08.71.09.91.62,1.73.98,2.28l.04.06c-.14.75-.32,1.61-.52,2.56-.94,4.53-2.23,10.73-1.88,15.18l.16,1.65Z"></path><path class="cls-2" d="M109.01,212.18l.83.49.17-.02c1.72-.24,3.42-.44,5.11-.62l.58-.06-.17-.56c-.32-1.08-.55-2.31-.67-3.63l-.16-1.66c-.52-5.43.01-14.69,1.58-27.51,1.77-12.74,3.89-25.74,6.31-38.64v-.07s0-.07,0-.07c-.04-.41-.32-.8-.92-1.23-2.8-1.73-4.99-2.64-6.78-2.81l-.29.03c-.48.05-.62.51-.88,2.05-6.09,32.49-8.63,54.62-7.57,65.79.43,4.47,1.36,7.26,2.85,8.54Z"></path><path class="cls-2" d="M264.08,333.45c-.16-1.74-.36-3.53-.6-5.32-.13-.98-.27-1.97-.43-2.96-.24-1.53-.52-3.15-.84-4.81l-.04-.22c-.14-.72-.27-1.45-.43-2.18-.06-.3-.13-.6-.2-.89l-.26-1.13c-.35-1.5-.71-2.98-1.1-4.43-1.72-6.48-3.88-12.62-6.41-18.25-3.03-6.73-6.66-12.89-10.8-18.31-.41-.54-.83-1.07-1.25-1.59-.86-1.08-1.64-2.01-2.36-2.82-4.2-5.11-9.54-10.39-15.88-15.7-10.99-8.48-22.52-15.42-34.26-20.61-5.22-2.31-10.56-4.31-15.85-5.95-2.56-.79-5.25-1.53-8-2.21-10.95-2.68-22.33-4.04-33.81-4.04h-3.93c-10.81,0-22.68,1.42-35.29,4.22-16.59,4.19-28.61,8.33-35.74,12.29l-.25.14v1.02c0,2.86,1.56,5.16,4.68,6.84.93.4,1.8.79,2.62,1.17,1.23.56,2.36,1.11,3.46,1.67l1.48.8c.21.12.42.24.56.32.26.21.52.42.78.65,2.21,1.94,4.17,4.6,5.83,7.93.87,1.74,1.67,3.68,2.38,5.77.99,2.93,1.86,6.29,2.56,9.97,1.67,8.74,2.52,19.66,2.52,32.47v4.53l.04.06c-.03.07-.04.16-.04.25v1.55c0,7.38-.57,20.24-1.71,38.24-1.38-.01-3.28-.07-5.66-.18h-.82c-13.91,0-27.61,4.11-40.74,12.23-7.81,5.3-14.42,11.74-19.69,19.14-9.69,15.41-14.6,30.81-14.6,45.75v4.29c0,8.24,1.56,16.5,4.63,24.53,1.48,3.86,3.32,7.74,5.5,11.54.58.89,1.18,1.75,1.78,2.59,2.35,3.27,4.96,6.21,7.76,8.74.66.6,1.33,1.17,2.01,1.73,1.28,1.04,2.48,1.92,3.67,2.7.67.42,1.34.83,2.02,1.23l.67.4c1.86,1.12,3.88,2.28,6.17,3.54l.69.38c.51.28,1.02.56,1.52.83l.69.37c.49.26.98.52,1.47.77,8.4,4.3,16.92,7.71,25.32,10.12,2.52.72,5.14,1.38,7.79,1.96,7.88,1.71,15.77,2.57,23.44,2.57h6.21c11.42,0,24.3-1.97,38.3-5.86,3.17-.88,6.44-1.87,9.73-2.95,12.57-4.74,22.68-9.42,30.04-13.92,25.22-14.95,45.99-35.26,61.73-60.37.41-.69.81-1.39,1.21-2.08l.44-.77c7.17-12.48,12.62-25.06,16.21-37.39,1.52-5.23,2.75-10.55,3.64-15.82,1.23-7.29,1.86-14.57,1.86-21.65v-3.84c0-1.2-.03-2.52-.1-4.06-.07-1.76-.18-3.41-.32-5.03ZM207.18,249.41l.11.06c.56.22,1.38.76,2.42,1.59,2.24,1.78,5.55,4.97,9.83,9.47l1.06,1.12c2.09,2.66,4.13,5.52,6.05,8.48,2.85,4.4,5.42,9.09,7.64,13.93,3.34,7.29,5.93,15.07,7.68,23.14,1.94,8.94,2.92,18.4,2.92,28.13,0,6.12-.58,12.8-1.73,19.86-.92,5.68-2.21,11.59-3.82,17.55-3.51,12.09-8.53,24.04-14.94,35.52-3.75,6.71-9.17,14.46-16.14,23.06-3.84,5.35-11.1,12.92-21.59,22.49l-1.07.98c-8.16,6.59-15.43,11.86-21.59,15.67-27.5,16.26-55.48,24.5-83.15,24.5-8.83,0-17.9-1-26.96-2.99-2.49-.55-4.72-1.09-6.79-1.65-2.72-.84-5.3-1.81-7.67-2.87-3.99-1.79-7.53-3.93-10.52-6.36-2.29-1.86-4.29-3.92-5.95-6.12-.91-1.26-1.84-2.62-2.83-4.15-2.99-4.64-5.44-9.39-7.28-14.13-.98-2.54-1.81-5.11-2.46-7.64-1.36-5.28-2.04-10.72-2.04-16.16v-1.59s-.09-1.01-.09-1.01c.06-.22.09-.51.09-.87v-.46c.03-4.52.73-9.79,2.09-15.68.56-2.32,1.3-4.7,2.18-7.06,2.95-7.92,7.65-15.71,13.96-23.14,14.63-15.66,32.8-23.59,53.99-23.59h.1l-1.35,14.67c-1.19,12.36-2.53,24.88-3.99,37.21-3.76,29.52-6,47.78-6.67,54.32,0,.21.06.5.85,1.65l.17.21c1.1.84,2.22,1.66,3.52,2.57l.25.17c.23.16.46.32.68.47l.7.47c.3.2.58.38.87.56l.25.16c1.02.65,1.93,1.19,2.79,1.66,3.07,1.7,5.86,2.83,8.3,3.34l.2.04.17-.11c.09-.06.15-.08.19-.1.6,0,.71,0,2.4-14.76,4.99-36.45,10.48-68.3,16.31-94.68.73.45,1.62,1.09,2.66,1.91.59.47,1.23,1,1.91,1.58.77.66,1.58,1.38,2.46,2.19.5.46,1.02.95,1.56,1.46l.24.23c1.36,1.3,2.86,2.77,4.5,4.42,4.63,3.47,8.61,5.99,11.86,7.48,2.07.95,3.88,1.51,5.38,1.66l.34-.05.56-.84v-.15c0-.54,0-1.67-11.13-12.52-3.04-2.6-5.93-4.94-8.57-6.93-.89-.67-1.75-1.3-2.59-1.9-.91-.65-1.77-1.24-2.61-1.79-1.37-.9-2.63-1.68-3.77-2.31-.48-.26-.94-.52-1.39-.75l.82-3.28c7.43-32.85,16.16-65.9,25.93-98.21l2.63-8.66-.68-1.02.02-.04-.61-.46c-.52-.44-1.04-.86-1.55-1.27-.59-.47-1.16-.9-1.74-1.33-1.31-.98-2.49-1.8-3.6-2.5-2.18-1.37-4.26-2.45-6.21-3.2l-.34-.12c-.1-.04-.2-.07-.3-.1l-.18-.06c-1.22-.43-2.29-.72-3.35-.9h-.51l-.54.36-.05.16c-.46,1.44-.91,2.89-1.35,4.34l-.89,2.86c-.24.76-.48,1.53-.71,2.29l-.99,3.23c-1.34,4.39-2.65,8.81-3.95,13.26-3.51,12.04-6.96,24.56-10.24,37.21l-.11.43c-.72,2.77-1.44,5.55-2.14,8.35-.79,3.13-1.56,6.28-2.34,9.44l-1.2,4.9c-.23.95-.45,1.91-.68,2.87l-1.1,4.63s-.01.06-.02.09c.06-1.43.11-2.83.15-4.22.15-4.69.23-8.86.23-12.73,0-4.22-.08-8.39-.25-12.41-.41-9.95-1.35-18.9-2.78-26.6l-.12-.65c-.42-2.19-.87-4.25-1.34-6.15-.64-2.22-1.34-4.33-2.07-6.25-.8-2.12-1.67-4.11-2.6-5.93-.48-.95-.97-1.83-1.45-2.63-2.06-3.43-4.39-6.09-7.01-7.95,19.81-7.59,39.46-12.24,58.41-13.8,3.71-.31,7.45-.5,11.1-.58,10.86-.23,21.41.6,31.13,2.51,2.11.41,3.84.79,5.43,1.18l.48.13c.88.23,1.75.47,2.6.71l.17.05c.9.26,1.79.52,2.66.79,8.5,2.63,15.46,5.88,20.68,9.67ZM183.97,238.48h0s0,0,0,0Z"></path><path class="cls-2" d="M429.28,372.99c.73-1.73,1.45-3.47,2.16-5.24,1.97-5.18,3.85-10.8,5.61-16.71l.34-1.14c.34-1.15.68-2.29,1.01-3.46.15-.56.3-1.12.44-1.68.1-.39.2-.78.3-1.17l.15-.59c.2-.75.39-1.5.58-2.26l.17-.64c.06-.22.12-.45.18-.68l.12-.53v-.63l-.9-.58c-1.01-.65-1.96-1.21-2.8-1.68-.37-.21-.74-.41-1.09-.59-.63-.32-1.28-.61-1.98-.89-1.47-.59-2.68-.87-3.68-.87h-1.2l-.31,1.14c-3.08,11.37-6.07,21.11-8.91,28.95-6.26,16.28-12.77,29.5-19.35,39.29-.41.61-.82,1.21-1.26,1.84-.72,1.26-1.66,2.67-2.86,4.29-1.18,1.59-2.52,3.24-4.04,4.98l-.1.12c-.76.87-1.58,1.77-2.43,2.69-1.04,1.12-2.05,2.18-3.07,3.22.05-1.92.32-4.28.81-7l.47-2.11c3.24-14.52,5.16-25.1,5.68-31.44.04-.49.07-.96.1-1.41.04-.67.06-1.31.06-1.87v-1.81c0-1.89-.12-3.17-.35-3.93-.03-.11-.07-.22-.11-.31-.06-2.59-2.13-5.29-6.33-8.24-2.46-1.72-4.74-3.18-6.77-4.34-1.28-.73-2.48-1.34-3.57-1.83l-.17-.08h0c-1.33-.58-2.43-.95-3.47-1.15l-.97.45.16.42c.88,2.32,1.35,4.96,1.4,7.85v.26c.02.09.02.17.02.26,0,1.82-.08,3.82-.23,5.95-.06.79-.13,1.6-.21,2.42-.25,2.51-.59,5.14-1.01,7.8l-.26,1.35c-2.32,12.09-4.05,21.54-5.12,28.1-.17,1.03-.32,2.01-.46,2.9-.18,1.16-.33,2.21-.46,3.14l-.06.07c-.71.74-1.38,1.43-2.07,2.13l-1.09,1.1c-1.05,1.05-2.03,2.01-2.97,2.89-1.16,1.08-2.21,2.02-3.14,2.79-.17.15-.35.29-.51.42-.26.2-.5.4-.74.57-1.69,1.26-2.43,1.46-2.73,1.46-.1-1.81-.16-3.09-.16-3.71,0-3.47.46-7.37,1.36-11.57,2.93-11.08,4.87-19.44,5.78-24.85.2-1.17.35-2.26.46-3.23.03-.31.06-.6.09-.88.05-.59.08-1.13.08-1.58,0-.34-.04-.67-.07-1-.34-3.1-2.25-5.89-5.77-8.36l-.14-.1c-1.16-.74-2.29-1.4-3.38-1.97l-.11-.05c-.87-.46-1.76-.87-2.71-1.26-.76-.31-1.43-.56-2.03-.76-1.53-.5-3.01-.82-4.46-.96-.64,0-1.37.39-2.24,1.18-.82.75-1.76,1.85-2.86,3.37-.73,1.01-1.54,2.2-2.39,3.55l-.25.4c-1.3-.72-2.59-1.38-3.84-1.97l-.12-.06c-.42-.2-.84-.38-1.31-.58-1.18-.5-2.35-.92-3.49-1.28-2.3-.71-4.4-1.07-6.24-1.07h-1.01c-2.05,0-4.4.47-6.97,1.41-2.29.83-4.79,2.04-7.4,3.57-2.49,1.22-5.9,3.9-10.13,7.96-1.07,1.03-2.21,2.16-3.4,3.38-.49.5-.99,1.02-1.51,1.57-1.93,2.24-3.73,4.49-5.34,6.69-.44.61-.88,1.21-1.29,1.81-5.62,8.12-8.47,15.48-8.47,21.88v1.01c0,3.85,1.21,7.35,3.58,10.41.86,1.11,1.88,2.17,3.04,3.15l.19.17c.1.09.2.18.33.28.97.69,1.94,1.35,2.89,1.97,1.54,1.01,3.06,1.95,4.54,2.79,1.58.9,3.13,1.71,4.62,2.41l.21.05c.54,0,1.11-.04,1.73-.13.32-.05.65-.1.98-.17,1-.21,2.06-.54,3.15-.98,3.66-1.48,7.85-4.29,12.48-8.37,3.6-3.63,6.63-6.88,9.01-9.66,2.52-2.95,4.37-5.45,5.47-7.39,4.26-5.87,8.19-11.93,11.72-18.05-.4,1.3-.77,2.56-1.13,3.78-.56,1.92-1.05,3.73-1.47,5.37-1.51,5.88-2.29,10.46-2.33,13.66v.53c0,1.33.18,2.65.54,3.92.32,1.14.8,2.25,1.41,3.29.24.41.5.81.83,1.26.28.29.55.56.82.83l.12.12c.99.99,1.93,1.9,2.82,2.71,1.1,1.01,2.2,1.94,3.26,2.77,3.39,2.66,6.43,4.26,9.04,4.77.46.09.93.14,1.43.16h.13c.09.02.18.02.27.02h1.19c.47,0,.97-.04,1.47-.13,1.01-.17,2.03-.53,3.04-1.06.57-.31,1.13-.66,1.61-1.02.47-.09,1.3-.55,3.41-2.47l.94-.85h-.02c.4-.38.84-.8,1.29-1.24.55-.53,1.13-1.11,1.75-1.74.05.13.1.26.16.41.19.32.38.63.56.94.16.26.32.51.48.76l.14.22c.35.55.7,1.06,1.05,1.55.18.25.35.49.53.72.6.79,1.22,1.52,1.83,2.15.34.35.67.67,1.01.96.85.75,1.71,1.33,2.6,1.74.16.07.33.14.5.2.72.27,1.45.4,2.14.4.13,0,.26-.01.4-.02l.34-.02c.16,0,.32-.02.49-.04h.15c2.94-.42,6.29-2.17,9.97-5.21.96-.8,1.96-1.7,2.97-2.67,3.83-3.7,8.06-8.74,12.58-14.99,4.23-6.19,8.34-12.93,12.22-20.05,1.96-3.59,3.68-6.9,5.25-10.11,2.21-4.51,4.43-9.42,6.63-14.67h0ZM327.45,385.24l-.25.45c-2.95,5.21-6.41,10.83-10.28,16.71-1.86,2.83-3.67,5.51-5.52,8.18-4.54,5.99-8.58,10.69-12,13.97-1.64,1.57-3.16,2.83-4.53,3.77-1.07.73-2.07,1.27-2.96,1.61.01-4.46,1.53-9.65,4.52-15.46,2.4-5.22,7.29-11.69,14.49-19.2,4.27-3.73,8.03-6.62,11.18-8.6.29-.18.58-.36.86-.53,2.05-1.22,3.86-2.05,5.37-2.46-.29.52-.59,1.05-.89,1.58ZM375.99,356.26h0s0,0,0,0Z"></path><path class="cls-2" d="M646.52,517.07l-.3-.44c-2.99-4.35-5.55-9.44-7.6-15.14-4.46-12.39-6.73-28.13-6.73-46.78,0-24.15,3.75-54.24,11.13-89.41,8.05-35.26,17.61-70.69,28.44-105.29l2.61-8.3.02-.15c0-.33-.16-.82-2.13-2.87-5.76-3.99-10.27-6.64-13.4-7.89-.58-.23-1.12-.42-1.6-.55-.76-.22-1.43-.32-2-.32h-.72l-.11.34c-3.75,11.42-8.58,27.25-14.35,47.06-18.62,65.38-28.06,118.1-28.06,156.7,0,18.79,2.31,34.79,6.86,47.53,2.15,6.01,4.84,11.41,7.99,16.06l.12.18c.39.58.78,1.15,1.19,1.71l.24.32h.07c.54.45,1.06.86,1.59,1.28l.77.61c.19.15.38.28.57.42l.6.45c.28.21.57.42.85.62l.4.29c3.57,2.51,6.98,4.31,10.13,5.33,1.13.37,2.06.61,3,.77h.36l.86-.37v-1.01l-.1-.13c-.24-.33-.48-.67-.71-1.02Z"></path><path class="cls-2" d="M710.12,373.52c-.08-1-.86-1.81-2.31-2.42-.12-.05-.24-.1-.43-.17-1.62-.59-4.04-1.01-7.19-1.24-.76-.06-1.56-.1-2.42-.14-4.34-2.9-8.01-4.9-10.9-5.95-1.65-.6-3.08-.91-4.24-.91h-.55l-.2.04c-5.18,2.33-7.6,4.22-7.6,5.93,0,.22.07.53.97,1.72,1.84,1.81,4.08,3.55,6.66,5.16.58.36,1.17.71,1.78,1.06l.26.15c.29.16.58.33.88.49,1,.54,2.08,1.07,3.29,1.62,1.51.69,2.96,1.3,4.44,1.87.8,2.3,1.39,4.49,1.75,6.5.21,1.2.35,2.33.4,3.37.02.33.03.67.03.99v2.38h.49l-.5.21c0,1.13-.07,2.25-.2,3.34-.98,8.63-5.68,16.75-13.93,24.1-1.82,1.29-3.57,2.44-5.19,3.42-1.28.77-2.52,1.46-3.69,2.05-1.19.59-2.31,1.08-3.33,1.44-.26.09-.52.18-.78.26-1.08.33-2.05.53-2.9.58-.09-1.14-.14-1.98-.14-2.51v-1.37c0-8.45,3.78-18.66,11.23-30.31,1.34-1.87,2.75-3.61,4.18-5.19.71-.78,1.42-1.51,2.1-2.17,1.05-1.01,2.14-1.96,3.24-2.79.35-.27.7-.53,1.05-.78l.21-.15v-.78l-.97-1.33-.35-.22c-1.1-.9-2.21-1.77-3.41-2.64-.82-.6-1.63-1.17-2.43-1.7-2-1.33-3.77-2.36-5.42-3.15-.81-.39-1.64-.74-2.62-1.09-1.26-.46-2.37-.77-3.38-.96l-.11-.02-.11.03c-2.13.58-5.59,3.77-10.6,9.79-.8,1.18-1.6,2.41-2.44,3.77-3.92,6.31-6.74,12.34-8.4,17.91-1.2,4.02-1.81,7.92-1.84,11.69v.14c0,4.47.98,8.13,2.95,10.92l1.37,1.5c.79.84,1.56,1.62,2.33,2.36,1.21,1.17,2.42,2.24,3.6,3.19.62.5,1.24.96,1.85,1.39.85.6,1.67,1.13,2.43,1.56l.12.07h0c.36.2.71.39,1.07.57l.16.07c.34.17.68.32,1.01.46,1.57.66,3.11,1.06,4.57,1.19.34.03.69.05,1.02.05.11,0,.21,0,.32,0h.21c1.01-.02,2.02-.09,2.98-.21.97-.11,1.98-.28,2.99-.51,1.7-.37,3.4-.9,5.07-1.57,4.05-1.61,8.09-4.11,12.05-7.43,4.25-3.96,7.11-7.26,8.51-9.78l.08-.14c.1-.19.21-.37.28-.53,2.6-4.94,4.46-10.04,5.53-15.13.73-3.49,1.1-6.99,1.1-10.4,0-2.67-.28-5.46-.84-8.29-.19-.95-.42-1.96-.7-3-.18-.66-.36-1.33-.56-2,.31-.19.6-.37.88-.55,3.63-2.3,5.33-4.2,5.2-5.79Z"></path><path class="cls-2" d="M445.13,340.51c.33.59.79,1.24,1.4,1.99.16.2.34.41.56.67.97.9,1.96,1.76,2.92,2.57.88.74,1.68,1.37,2.46,1.94.55.41,1.08.78,1.6,1.13.32.21.63.42.94.61,1.52.95,2.93,1.65,4.19,2.08,1.06.36,2.06.55,3.02.57h.13s.06,0,.06,0c1.01-.2,1.81-.62,2.37-1.25l.46-1.26c2.61-7.87,4.67-14.09,6.15-18.63l1.11-3.43c.36-1.12.67-2.08.92-2.88.94-2.96.92-3.03.87-3.21l-.08-.17c-.37-.49-.8-1.04-1.29-1.66l-.1-.09c-.23-.17-.46-.32-.68-.47l-.38-.26c-.53-.37-1.06-.72-1.57-1.07-3.64-2.43-6.9-4.28-9.68-5.51-.75-.33-1.53-.64-2.39-.93-1.25-.43-2.33-.72-3.4-.9h-.73l-.1.36c-.98,3.43-2.2,7.39-3.63,11.77-.55,1.66-1.12,3.38-1.73,5.17-1.01,2.96-2.1,6.09-3.28,9.39l-.71,2,.03.14c.08.38.26.82.56,1.33Z"></path><path class="cls-2" d="M548.67,343.18c.98.91,1.97,1.77,2.92,2.57.88.73,1.68,1.37,2.46,1.94.86.64,1.72,1.23,2.54,1.74.89.55,1.72,1.01,2.48,1.37l.2.09.19-.45-.05.51c.18.08.36.16.53.23,1.38.57,2.67.87,3.86.89h.13s.06,0,.06,0c1.01-.2,1.81-.62,2.37-1.25l.1-.17c2.91-8.76,5.14-15.51,6.7-20.29l.93-2.85c.36-1.12.67-2.08.92-2.88.93-2.95.92-3.03.88-3.2l-.09-.18c-.37-.49-.8-1.04-1.29-1.66l-.1-.1c-2.39-1.69-4.73-3.21-6.97-4.52l-.36-.22c-.16-.1-.32-.2-.48-.29-2.49-1.41-4.81-2.49-6.88-3.21-1.25-.43-2.33-.72-3.4-.9h-.73l-.1.36c-2.11,7.43-5.25,16.91-9.31,28.19l-.05.13.03.14c.2.95,1.01,2.24,2.52,4Z"></path><path class="cls-2" d="M600.54,456.81l-.12-.28c-1.91-4.26-2.88-10.13-2.88-17.44-.02-1.9,0-3.95.05-6.11v-.35c.04-1.16.09-2.34.14-3.55.29-6.17.93-13.15,1.88-20.74,4.05-32.23,14.16-76.9,30.07-132.79l2.36-8.24.02-.14c0-.65-.55-1.47-1.83-2.67l-.51-.38c-4.84-3.65-9.26-6.25-13.11-7.72-1.2-.46-2.28-.8-3.28-1.03l-.16-.04-1.18.53-5.55,19.22c-14.9,53.38-24.18,95.56-27.57,125.39-.23,2.06-.44,4.08-.62,6.02-.11,1.22-.22,2.43-.31,3.61-.12,1.56-.22,3.07-.3,4.56-1.1,1.21-2.09,2.28-2.97,3.23-.86.93-1.62,1.73-2.25,2.38l-.74.67c-1.11,1.01-2.2,1.98-3.26,2.9-3.95,3.44-7.55,6.31-10.72,8.52-1.09.77-2.15,1.47-3.15,2.08-1.09.67-2.11,1.24-3.07,1.73-.98.49-1.9.9-2.76,1.21l-.24-4.07c-.23-4.37.33-11.15,1.66-20.16l.25-1.64.28-1.34c.17-.85.35-1.7.54-2.56.19-.89.39-1.8.59-2.7l.23-1.04c.7-3.18,1.46-6.44,2.24-9.69.62-2.59,1.28-5.23,1.96-7.93.89-3.49,1.85-7.16,2.87-10.9l.15-.56c.21-.79.43-1.58.65-2.39.22-.81.45-1.63.68-2.45l.25-.88c.2-.73.4-1.44.61-2.18l.02-.64-.08-.12c-.46-.71-.82-1.14-1.11-1.34-.09-.06-.18-.11-.28-.14-.79-.63-1.57-1.23-2.34-1.8-4.3-3.18-8.5-5.47-12.46-6.83l-.17-.06c-.43-.15-.86-.29-1.29-.42-.68-.2-1.36-.37-2.03-.51l-.2-.04-.58.39-.05.15c-1.27,3.64-3.49,11.65-6.61,23.86l-.51,2.24c-.45,2.01-.88,3.97-1.28,5.86-.21,1.01-.42,2.02-.62,3-.18.9-.36,1.77-.53,2.64-.88.09-1.79.2-2.72.33-1.01.14-2.04.31-3.1.5-1.08.19-2.2.41-3.34.66-2.92.63-6.11,1.44-9.47,2.42l.14.47h0l-.35-.41-.7.2c-.43.13-.87.25-1.31.38-.51-.76-.99-1.5-1.46-2.23-1.86-2.89-3.41-5.58-4.62-8.01-2.26-4.53-3.4-8.3-3.4-11.2v-2.1c0-1.96.47-3.95,1.41-5.92.43-.91,1-1.87,1.7-2.86,1.45-2.05,3.43-4.12,5.88-6.14,1.3-1.07,2.72-2.14,4.25-3.17-.03.16-.06.33-.1.52-.12.57-.28,1.22-.49,1.99-.03.08-.06.16-.1.24l-.08.19c-.13.32-.28.63-.45.91-.79,1.36-1.91,2.22-3.43,2.62-.4.11-.86.17-1.55.23-.2.02-.4.03-.68.04l-.49.07v1.01l1.21,1.02c2.14,1.78,4.01,3.22,5.57,4.27.44.3.87.57,1.26.81.52.31,1.01.58,1.49.81.94.45,1.68.66,2.29.66.28,0,.6-.03,1.01-.1.3-.05.61-.12.94-.22.34-.1.69-.21,1.06-.35l.17-.11c1.02-1.02,1.94-2.17,2.72-3.42,1.23-1.96,2.11-4.19,2.63-6.63.23-1.11.39-2.13.46-3.12.06-.75.09-1.51.09-2.24v-.55c0-.1,0-.19-.01-.28v-.16c-.07-2.23-.58-4.16-1.52-5.74l-.11-.13c-2.16-1.75-4.3-3.05-6.36-3.85l-.22-.09c-1.63-.61-3.21-.92-4.69-.92h-2.1c-2.12,0-4.61.57-7.45,1.7-7.65,4.14-13.29,8.72-16.78,13.62-2.91,4.09-4.39,8.47-4.39,13.02,0,3.66,1.18,7.72,3.51,12.07l.12.22c.15.27.29.55.48.87,1.12,1.53,2.16,2.95,3.12,4.28,4.7,6.51,7.46,10.72,8.23,12.52l-.52.22c-.92.38-1.85.78-2.77,1.2-.82.37-1.65.75-2.47,1.14-2.71,1.29-5.47,2.74-8.22,4.31-.91.52-1.83,1.06-2.75,1.61-.9.54-1.8,1.1-2.71,1.67-.16-.04-.31-.05-.46-.05h-1.13l-.15.16c-.84.93-1.63,1.81-2.29,2.55-6.3,4.43-10.12,8.12-11.66,11.27-.97.81-1.91,1.6-2.82,2.33-.84.67-1.65,1.3-2.44,1.9-1.06.8-2.07,1.55-3.12,2.28-1.07.75-2.11,1.43-3.08,2.03-1.09.67-2.11,1.24-3.07,1.73-.98.49-1.91.9-2.76,1.2l-.24-4.07c-.24-4.62.4-11.96,1.91-21.8,2.2-10.79,5.13-22.96,8.71-36.16.26-.98.53-1.96.8-2.95l1.53-5.52.02-.64-.08-.12c-.46-.71-.81-1.14-1.12-1.34-.09-.06-.18-.1-.27-.13-2.43-1.94-4.81-3.62-7.09-4.99l-.11-.07c-.61-.37-1.22-.71-1.82-1.03-.6-.32-1.2-.62-1.8-.91-1-.48-1.9-.87-2.76-1.21-.37-.14-.74-.27-1.22-.44-.54-.19-1.09-.36-1.62-.51-.13-.04-.26-.07-.4-.1l-.58-.15c-.3-.08-.59-.16-.88-.22l-.2-.04-.58.39-.05.16c-1.1,3.14-2.9,9.54-5.36,19.03-.42,1.62-.86,3.32-1.32,5.13-.4,1.77-.78,3.48-1.15,5.17-.99,4.56-1.85,8.85-2.56,12.74-.62,3.42-1.16,6.69-1.59,9.73-.26,1.81-.47,3.53-.65,5.16-.5,4.54-.72,8.45-.63,11.63.25,5.29,1.13,9.33,2.62,12l.07.1c.29.3.57.58.95.95,1.1,1.1,2.19,2.11,3.23,3,1.17,1.01,2.34,1.92,3.47,2.72,3.06,2.15,6.02,3.55,8.81,4.15.53.11,1.06.2,1.61.26,1.21.14,1.98.15,3.24,0,.9-.1,1.87-.31,2.99-.64,1.06-.31,2.02-.65,2.94-1.05,1.71-.74,3.62-1.78,5.67-3.09l.3-.19c.25-.16.5-.32.76-.49,1.5-1,3.07-2.15,4.66-3.41l1.1-.87h-.03c.09-.07.17-.14.26-.21l1.06-.87c.66-.56,1.34-1.15,2.03-1.76.42.27.84.54,1.25.79.29.18.59.36.88.54l.24.14c.5.3.98.58,1.46.84.34.19.68.37,1.01.55l.18.1c1.47.77,2.89,1.42,4.22,1.92,1.17.44,2.28.76,3.31.96.41.08.81.14,1.32.2l.3.03c.27.02.53.03.79.03h1c.11,0,.22,0,.34-.01h.27c1.44-.04,2.76-.16,4.06-.36,9.14-1.84,16.26-4.23,21.18-7.11,2.54-1.48,4.55-3.14,5.98-4.92,1.38-1.72,2.24-3.59,2.57-5.55.11-.64.16-1.28.16-1.9,0-2.06-.58-4.47-1.72-7.18-.11-.26-.24-.53-.36-.8l-.37-.79c-.45-.94-.9-1.82-1.39-2.68-.75-1.34-1.64-2.77-2.63-4.26.19-.07.42-.15.72-.27l.12-.04c1.49-.51,2.95-.99,4.39-1.44,1.13-.36,2.24-.68,3.34-1l.32-.1c.94-.27,1.87-.52,2.79-.77.8-.21,1.6-.42,2.38-.62-.06.38-.12.75-.18,1.12l-.25,1.53c-.16,1-.31,1.98-.45,2.93l-.02.16c-.16,1.06-.3,2.09-.42,3.1l-.19,1.52c-.13,1.1-.24,2.16-.33,3.18-.11,1.1-.19,2.16-.26,3.17-.11,1.67-.17,3.22-.18,4.62,0,.6,0,1.17.02,1.74.25,5.29,1.13,9.33,2.62,12l.21.23c.27.28.54.55.81.82.23.23.46.46.69.68.86.83,1.72,1.62,2.54,2.33,1.17,1.01,2.34,1.92,3.47,2.72,3,2.11,5.91,3.5,8.64,4.12.55.12,1.13.22,1.78.29,1.22.14,1.97.15,3.24,0,.9-.1,1.87-.31,2.99-.64,1.06-.31,2.02-.65,2.94-1.05,1.73-.75,3.58-1.76,5.67-3.09,1.97-1.26,4.05-2.76,6.16-4.45.97-.78,2.03-1.67,3.15-2.63l.17-.15c.87-.76,1.75-1.55,2.65-2.38.68-.63,1.37-1.28,2.07-1.94.01.9.04,1.79.09,2.66l.02.36c.07,1.16.16,2.29.3,3.45l.02.13c.23,1.82.55,3.51.97,5.01.31,1.11.68,2.14,1.1,3.08.39.86.81,1.63,1.28,2.32.07.1.14.2.27.36.26.36.54.7.9,1.06.77.55,1.51,1.07,2.24,1.58,1.2.82,2.36,1.59,3.45,2.28,2.84,1.78,5.37,3.12,7.52,3.96,1.61.63,3.05,1.01,4.34,1.13h.08s.1-.04.1-.04c.41-.08.67-.4.67-.82v-.18l-.05-.22c-.05-.11-.1-.22-.15-.34ZM483.78,426.61c.46-.48,1.09-1.12,1.88-1.91.59-.58,1.26-1.23,2.02-1.96l1.36-1.2c.57-.5,1.14-1,1.7-1.48.76-.65,1.51-1.28,2.25-1.88l.11-.09c.41-.33.82-.66,1.22-.97,2.32-1.83,4.55-3.4,6.62-4.68.32-.2.63-.38.95-.56l.14-.08c.82-.48,1.51-.86,2.13-1.19.29.55.54,1.14.75,1.77.22.68.37,1.36.44,2.03v.13c.04.27.07.53.07.8v.36c0,.61-.11,1.2-.35,1.8-.27.69-.69,1.32-1.18,1.82-.29.21-.62.41-.98.62-2.29,1.35-6.01,2.82-11.06,4.39l-.68.2c-.83.25-1.68.5-2.58.76l-.5.14c-1.35.38-2.78.77-4.29,1.16ZM512.62,397.58h0s0,0,0,0Z"></path><path class="cls-1" d="M552.96,121.1l-8.3-16.04-110.61,9.99c.23,5.94.21,12.39-.44,19.04l89.31-7.62-73.45,87.68c.31.38.63.77.94,1.15,1.76,2.15,3.58,4.36,5.36,6.6,3.2,4.04,4.48,8.08,3.8,12-.65,3.76-3.03,7-7.06,9.64.45,1.15.78,2.43.91,3.86.07.76.08,1.45.08,2.01,0,.34.01.76.03.93.06.5.13,1.01.22,1.54l23.27,54.15,15.23,36.23c3.16-2.46,6.77-4.78,10.83-6.98l.65-.35.69-.27c1.76-.7,3.44-1.25,5.09-1.66l-44.63-106.77,88.08-105.14Z"></path><path class="cls-1" d="M279.46,270.67c.04-.19.09-.37.13-.56-.78-.95-1.33-2.09-1.57-3.37l-1.36-7.22-.12-.63c-.2-1.05-.4-2.09-.58-3.11l-.13-.68c-.18-.99-.35-1.99-.53-2.99l-.08-.45c-.3-1.76-.61-3.56-.96-5.28-.2-.28-.42-.59-.62-.91-.08-.12-.16-.23-.25-.36l-.61-.86c-.86-1.2-1.75-2.56-2.43-4.26-.06-.15-.13-.31-.23-.53l-.14-.3c-.32-.73-.69-1.45-1.09-2.16l-88.73-53.99,44.8-13.01c-.64-1.89-.55-4,.42-5.87l1.88-3.64c-1.11-1.59-1.6-3.59-1.26-5.59.43-2.5,2.08-4.55,4.3-5.57l.07-.63-77.68,21-2.71,17.86,117.18,71.29-1.26,18.2c.93,1.34,1.84,2.73,2.74,4.13,2.3.65,4.61,1.31,6.92,1.97,1.11-3.1,2.45-7.01,3.02-9.1.31-1.12.6-2.25.87-3.37Z"></path><path class="cls-1" d="M305.73,79.43c.94-.4,1.93-.59,2.92-.59,1.76,0,3.49.62,4.88,1.8l1.45,1.24.85-.14c.5-.62,1.07-1.18,1.76-1.63.96-.61,2.02-.98,3.1-1.12l10.31-48.76,37.72,53.68c1.18.16,2.3.38,3.38.59.52.1,1.05.21,1.57.3.08.01.16.03.24.05,1.39.29,2.74.62,4.06.99.1-.16.21-.31.33-.46,1.46-1.9,3.69-2.93,5.97-2.93,1.03,0,2.07.21,3.06.65l4.14,1.85L335.17,0l-17.82,2.94-19.47,81.66,3.63-.58c.67-2.04,2.19-3.73,4.22-4.59Z"></path><path class="cls-2" d="M433.75,236.31c-1.31.84-2.51,1.83-3.77,2.74,1.87,2.85,3.23,3.3,6.54,2.57,1.78-.39,3.6-.34,5.01,1.15.11.12.18.28.48.74-.85-.36-1.4-.6-1.96-.83,2.27,2.66,4.56,5.24,4.66,9.46-1.02-1.24-1.79-2.18-2.56-3.12.3,2.93,1.29,5.8-.07,8.89-.55-1.23-1.05-2.32-1.55-3.42-.34,2.25.57,4.56-1.32,6.83-.52-3.63.43-6.75,1.09-10.33-.65.84-1.02,1.33-1.53,1.99-.49-1.4-.93-2.65-1.37-3.89,1.39,6.16-.16,11.77-3.03,17.34.5-.05.88-.1,1.44-.16-.95,1.39-1.83,2.68-2.71,3.97-.14-.04-.28-.08-.42-.12.49-2.02.97-4.03,1.58-6.57-.81,1.72-1.4,2.99-2.03,4.31-.49-1.78-.93-3.41-1.38-5.04-.15.04-.29.08-.44.12,1.26,3.18-.13,7.03,2.67,9.62,1.09-1.78,2.27-3.71,3.45-5.63.14.05.28.11.42.16-.3,1.4-.6,2.79-.9,4.19.13.04.27.08.4.12.4-.9.81-1.79,1.08-2.41.66,1.68,1.37,3.48,2.04,5.19-.24-.1-.76-.31-1.28-.52-.14.13-.28.26-.42.39,1.5,1.86,2.99,3.72,4.49,5.57-.09.09-.19.17-.28.26-1.22-1.35-2.44-2.7-3.65-4.05-.05.04-.11.08-.16.12,1.6,2.44,3.2,4.89,4.8,7.33-.16.11-.31.22-.47.32-2.01-2.46-4.01-4.93-6.02-7.39-.09.06-.19.11-.28.17.38.6.75,1.19,1.13,1.79-.12.1-.24.19-.37.29-1.25-1.46-2.5-2.92-3.67-4.29.15,3.85,4.58,4.69,6.26,8.1-1.96-1.22-3.56-2.24-5.19-3.21-.32-.19-.77-.14-1.17-.21h0c-.28-.31-.56-.62-1.05-1.16.04.82.06,1.33.08,1.84,1.93,2.15,4.15,4.11,5.7,6.51,2.08,3.21,3.86,6.67,4.1,10.65.08,1.31,0,2.63.29,3.98.21-.89.43-1.78.64-2.67.08.02.17.03.25.05-.83,4.96-1.65,9.92-2.48,14.87-1.27-1.46-.68-3.25-.55-4.97.09-1.19.26-2.38.4-3.57-.41,1.65-.83,3.31-1.31,5.22-.22-1.51-.41-2.79-.6-4.06-.08,0-.17.02-.25.03-.41,3.21-.94,6.4-1.18,9.62-.18,2.49.63,4.66,3.12,5.66-.59-2.57-1.19-5.16-1.79-7.76.13-.04.27-.07.4-.11.93,1.55,1.86,3.11,2.79,4.66.12-.06.25-.13.37-.19-.2-.64-.39-1.27-.66-2.13.43.16.73.27,1.34.5.05-1.64.1-3.17.14-4.69,1.48,3.22,2.07,3.9,4.69,5.09-2.28-2.89-4.31-5.44-2.96-8.86.52,1.67,1.05,3.37,1.59,5.07.15-.05.31-.09.46-.14.65-8.65-.42-17.12-2.82-25.45.16-.05.32-.1.48-.14,1.72,4.35,3.44,8.71,5.16,13.06-.16.07-.32.14-.49.21-.47-1.04-.94-2.08-1.41-3.12-.17.02-.34.04-.51.06.23,4.94.47,9.88.7,14.82.14.02.29.03.43.05.13-.44.25-.88.41-1.43,1.2,2.02,2.36,3.97,3.69,6.22-.66-4.43-1.27-8.48-1.92-12.81.56.27.85.41,1.14.55-.37-2.13-.74-4.2-1.13-6.44,1.62.87,3.06,1.64,4.5,2.4-2.49-3.3-5.64-6.04-6.52-10.62,1.99,1.22,3.67,2.25,5.35,3.28-2.96-3.47-6.39-6.45-8.27-10.86,1.95.93,3.78,1.81,5.6,2.68-4.41-4.02-9.28-7.51-10.63-13.94,1.28.34,2.56.69,4.02,1.08-1.36-1.29-2.54-2.43-3.75-3.54-1.16-1.05-1.18-2.1-.25-3.33,1.81-2.4,3.39-4.92,3.7-8.05.13,2.7.26,5.41.39,8.11l.49.05c.21-1.78.54-3.56.59-5.34.06-1.82-.14-3.66-.06-5.57.27.7.54,1.4.82,2.09.1-.02.2-.04.3-.06-.26-1.66-.58-3.31-.78-4.98-.13-1.05-.05-2.13-.14-3.19-.26-3-2.46-4.75-4.39-6.66-.12-.12-.21-.26-.28-.36,2.29-1.19,4.64-2.24,6.81-3.59,4.89-3.04,5.43-6.31,1.81-10.87-4.19-5.29-8.6-10.41-12.71-15.76-3.36-4.39-6.41-9.02-9.66-13.62,1.6-1.99,3.09-3.81,4.55-5.66,2.69-3.39,2.91-6.47.78-10.25-.11-.2-.21-.42-.35-.6-6.19-7.8-9.51-17.09-13.55-26.01-.5-1.1-1-2.19-1.53-3.35,1.06-.95,2.13-1.81,3.08-2.79,3.71-3.81,4.92-8.67,5.49-13.73,1-8.98.75-17.98.14-27.07-1.21,3.09-2.42,6.18-3.63,9.28-1.38-8.26-3.58-16.1-8.05-23.24.71,4.24,1.41,8.37,2.1,12.51-.22.06-.44.12-.66.19-2.46-7.61-5.39-14.94-11.88-20.19.15.3.25.64.44.9,3.65,5.02,5.57,10.69,5.54,16.84,0,1.1-.04,2.19-.06,3.29-2.81-3.81-6.14-7.24-9.62-10.71-.56-.54-1.18-.89-1.6-1.11l-3.78-1.96-.46-.67.22.55-1.87-.97.7,1.65c-.08-.04-.17-.08-.25-.11l-9.02-4.02,6.19,7.69c1.58,1.96,2.82,4.09,3.68,6.27-.85-1.02-1.74-1.96-2.69-2.81-4.71-4.24-11.1-7.23-19.08-8.91-.59-.1-1.18-.22-1.77-.34-1.87-.37-3.75-.72-5.86-.75l-12.22.09,11.35,4.51c.23.09.46.18.68.27l-3.91-1,6.35,5.81c-.55-.14-1.12-.28-1.75-.45-3.18-.72-6.56-1.98-10.33-3.85l-17.91-8.91,13.39,11.26c-.08-.01-.15-.02-.23-.03l-11.04-1.26,2.31,1.38s-.08-.03-.12-.04c-3.75-1.32-6.23-2.19-10.42-5.24-.69-.51-1.35-1.07-2.04-1.66-.68-.59-1.36-1.17-2.08-1.71l-5.12-3.85,1.35,6.26c.19.86.42,1.71.69,2.53l-2.8-1.38.46,2.44c-3.13-2.07-6.18-4.38-9.12-6.88l-3.6-3.06-.33,4.71c-.3,4.24,0,8.14.87,11.66-5.26-1.48-10.67-2.23-16.16-2.23h-9.82s7.34,3.82,7.34,3.82c-2.22-.08-4.38-.02-6.45.18l-.43.05c-1.43.16-2.91.32-4.43.81l-4.28,1.4,3.56,2.76c.09.07.18.14.26.2-6.07,1.94-11.7,6.01-15.94,11.65l-6.78,9.01,1.29-.72c-1.37,1.97-2.61,4.1-3.72,6.36l-3.65,7.46c-1.34,1.46-2.71,2.89-4.11,4.2l-.78.69c-2.4,2.12-4.87,4.3-6.68,7.12l-4.97.64,3.6,1.82-4.96,9.6,7.98-6.72c-.2.75-.36,1.53-.43,2.34l-.56,6.15,4.54-4.18c.08-.07.17-.15.25-.22-.3,1.37-.39,2.79-.25,4.2l.35,3.75.13-.08-.72,1.63,2.3,1.25-1.35.3,6.89,4.9c.23.92.67,1.65,1.33,2.16.14.11.26.22.38.34.66.65,1.06,1.45,1.3,2.59.04.2.08.4.11.61.36,2.51.78,5.01,1.2,7.52.33,2,.67,3.99.97,6,.24,1.55.54,3.06.9,4.51.36,1.47.8,2.92,1.31,4.34,2.07,5.8,5.31,10.89,9.64,15.13.99.97,1.93,1.97,2.77,2.95.43.51.85,1.02,1.26,1.55,1.82,2.34,3.33,4.87,4.51,7.52l.13.29c.11.25.22.49.32.74.43,1.06,1.05,1.97,1.59,2.73l.63.89c.15.21.3.42.44.63.2.32.43.63.66.95l.15.21c.13.18.26.36.37.55.15.25.18.35.18.38.5,2.27.91,4.64,1.31,6.92.19,1.12.39,2.24.59,3.35l.12.64c.23,1.25.47,2.49.7,3.73l1.36,7.23,2.87-.25c-.43,2.46-.93,4.92-1.51,7.33-.29,1.21-.6,2.42-.93,3.61-.98,3.55-3.54,10.6-3.56,10.67l4.48,1.63c.11-.3,2.65-7.29,3.68-11.03.34-1.25.67-2.51.97-3.77.77-3.22,1.42-6.53,1.93-9.82.05-.31.05-.66.04-1.08v-2.74s-4.08.34-4.08.34l-.57-3c-.24-1.24-.47-2.47-.7-3.72l-.12-.62c-.2-1.1-.39-2.2-.58-3.3-.4-2.34-.82-4.76-1.35-7.14-.13-.6-.38-1.2-.77-1.83-.17-.29-.37-.57-.58-.86l-.17-.23c-.17-.23-.33-.45-.48-.69-.18-.28-.37-.56-.56-.82l-.64-.9c-.4-.57-.82-1.17-1.05-1.75-.12-.31-.26-.61-.39-.91l-.12-.27c-1.33-3-3.04-5.87-5.1-8.51-.45-.59-.92-1.16-1.41-1.72-.94-1.09-1.96-2.19-3.05-3.25-3.8-3.73-6.66-8.21-8.48-13.32-.45-1.26-.84-2.57-1.17-3.88-.32-1.31-.6-2.68-.81-4.08-.31-2.02-.64-4.05-.98-6.07-.41-2.47-.82-4.93-1.18-7.41-.04-.31-.1-.61-.16-.91-.43-2.06-1.29-3.71-2.63-5.02-.14-.14-.29-.28-.45-.42,0-.05,0-.09-.01-.14l-.05-1.08,3.41-.75-9.55-5.19c.39-.79.71-1.87.37-3.08-.24-.86-.76-1.63-1.6-2.33l-.02-.02c.11-1.09.41-2.16.91-3.14l.25-.46c.17-.3.36-.59.57-.87l3.35-4.43-5.52.62c-.63.07-1.35.17-2.11.34l.34-.67c.22-.39.46-.76.7-1.13l.53-.85c.23-.38.45-.77.64-1.18l.54-.96h-.08s1.87-3.99,1.87-3.99l-.41.13c1.83-1.78,3.55-3.67,5.21-5.5,2.8-3.09,5.44-6,8.63-8.45.32-.26.67-.48,1.02-.71.85-.55,1.82-1.17,2.61-2.18l3.77-4.85-6.05,1.03c-.78.13-1.54.3-2.28.51,2.37-2.97,5.05-5.44,7.97-7.32l1.12-.72.03-3.46c3.75-2.98,8.05-4.87,12.44-5.37l4.56-.52-3.05-3.43c-.07-.08-.15-.16-.22-.24,4.31-.3,9.02.07,14.02,1.09l5.59,1.14-3.12-4.78c-.14-.22-.29-.43-.45-.63,3.56.57,7.07,1.49,10.41,2.73l5.35,1.98-2.35-5.2c-1.22-2.71-1.94-5.83-2.13-9.3,3.59,2.77,7.32,5.26,11.12,7.42l6.23,3.55-1.12-2.56,6.03,3.62-3.91-7.5c-.25-.48-.51-.98-.77-1.48,3.4,2.15,5.99,3.05,9.1,4.15,1.53.54,3.26,1.15,5.37,2.01,2.92,1.12,5.56,1.48,8.37,1.86l4.08.56c1.22.8,2.29,1.55,3.02,2.04.59.41,1.11.76,1.62,1.1.46.27.93.64,1.42,1.03.51.39,1.02.79,1.55,1.13l10.95,7.09-6.94-9.42,11.74,6.01,7.97,11.05-5.73-15.93c-.39-1.08-.87-2.14-1.43-3.17l.45-.33,9.4,9.01-9.01-15.13c-.55-.93-1.2-1.75-1.92-2.49,2.95,1.33,5.49,2.95,7.61,4.86,2.92,2.62,5.31,6.32,7.09,11.02l2.88,7.6,1.68-7.95c.04-.18.07-.36.1-.54l2.66,7.05,1.53-4.71c.54,1.9.87,3.75,1,5.54l.05.64.36.53c.22.32.56.85.93,1.53l1.7,3.11-.19.53.16.68c.07.31.14.64.19.97l.95,5.82c-.06.4-.12.8-.18,1.2.13-.02.25-.05.37-.08l.26,1.6c-.03.14-.06.27-.09.4-.23,1.03-.47,2.78-.7,4.46-.06.48-.13.94-.19,1.38-7.48-1.62-14.74-3.2-21.97-4.77-1,2.27-1.4,4.09-.16,6.06,2.39,3.81,4.51,7.79,7.01,11.51,5.73,8.53,11.62,16.95,17.44,25.41.22.33.42.68.75,1.22-1.76,1.73-3.51,3.46-5.26,5.19.1.14.2.27.3.41,2.47-1.81,5.04-3.49,7.36-5.48,1.6-1.38,3.1-2.32,5.34-2.2,3.22.17,6.46.02,9.7-.06.92-.02,1.32.27,1.54,1.18.82,3.39-.09,5.76-2.94,7.75-1.32.92-2.6,1.93-3.75,3.05-2.34,2.25-2.36,3.31-.19,5.68,5.59,6.11,10.57,12.67,14.81,19.8,1.27,2.13,2.56,4.25,2.47,6.9,0,0-1.55,5.39-7.49,9.19ZM370.8,106.94c.44.19.86.41,1.26.65,2.19,1.26,4.25,3.11,6.14,5.51l-7.4-6.16ZM399.85,106.49c-.08-.38-.17-.75-.26-1.13l.77,1.86-.51-.73ZM409.65,116.56c-.16-.48-.29-.97-.47-1.43.18.38.33.77.48,1.15v.27ZM436.63,238.05c.31-.51.54-1.1.95-1.52.43-.44.98-.87,1.56-1.05,2.02-.63,4.05-1.23,6.12-1.68.69-.15,1.48.19,2.22.31-.37.66-.57,1.68-1.13,1.93-2.51,1.16-5.13,2.11-7.57,3.08-1-.5-1.57-.79-2.15-1.08ZM442.97,289.46c-1.29-2.29-2.37-4.22-3.45-6.15,2.4,1.22,3.1,3.36,3.45,6.15ZM443.04,311.12h0s.05.04.05.04h0s-.05-.04-.05-.04ZM444.15,304.24c-.66,2.22-.73,4.61-1.06,6.92-.16-.6-.5-1.23-.43-1.8.31-2.6.58-5.22,1.19-7.75.48-2,1.02-3.94.1-5.88-1.13-2.39-2.41-4.7-3.57-7.08-.53-1.08-.89-2.25-1.33-3.37-1.19-1.3-2.38-2.59-3.57-3.89,1.19,1.29,2.38,2.59,3.57,3.88,0,0,0,0,0,0,0,0,.01.01.02.02,1.18,1.72,2.43,3.4,3.53,5.18,2.68,4.33,3,8.9,1.55,13.77ZM447.02,288.63c-.91-1.74-1.66-3.2-2.42-4.66,1.37,1.14,2.94,2.17,2.42,4.66Z"></path><path class="cls-2" d="M424.92,188.96c.15-.3.28-.62.54-1.19-8.15,1.82-14.47,6.26-20.31,11.87-2.64-1.88-5.22-3.8-7.9-5.58-.81-.54-1.86-.87-2.84-.96-2.98-.27-5.98-.38-9.24-.57-.7,3.42-1.45,6.83-2.03,10.27-.08.45.59,1.15,1.07,1.56,5.77,5.07,11.89,9.78,17.23,15.26,3.4,3.49,5.68,8.08,8.42,12.2.2.3.18.78.19,1.18.13,5.6.21,11.2.41,16.8.03.9.41,1.91.95,2.64,1.47,1.98,3.11,3.84,4.69,5.77,4.82-5.53,7.31-13.18,14.76-16.83-1.51-1.51-2.95-2.89-4.31-4.34-.39-.42-.89-1.09-.8-1.55,1.58-8.67-.46-16.84-3.25-24.93-.5-1.46-.81-2.99-1.26-4.67.67-.38,1.48-.84,2.55-1.45-1.03-.47-1.8-.83-2.57-1.16-.98-.41-1.71-.17-2.39.7-.63.79-1.51,1.39-2.24,2.1-.31.3-.55.69-1.05,1.33-2.1-1.24-4.35-2.56-6.61-3.88.82-1.85,3.81-3.28,5.74-2.74,2.88.81,5.76,1.6,8.64,2.39.1-.12.2-.23.3-.35-.39-.48-.73-1.02-1.19-1.42-1.66-1.46-2.02-3.23-1.14-5.16,1.13-2.46,2.42-4.85,3.63-7.27Z"></path><path class="cls-2" d="M363.68,218.74c-.03-.55-.12-1.22-.45-1.6-1.95-2.27-3.98-4.47-6.18-6.9-1.04,4.07-1.23,7.85.52,12.02.74-1.25,1.33-2.27,2.13-3.62.21,4.45.41,8.55.6,12.64-.06,0-.23.02-.26-.03-2.32-3.87-5.79-6.53-9.46-8.98-2.94-1.95-4.95-4.62-6.15-7.93-.9-2.51-.7-4.91.81-7.1,1.4-2.02,2.91-3.97,4.4-5.97q-5.08-.92-5.54-7.39c-.56.87-1.03,1.41-1.29,2.04-2.14,5-3.47,10.2-2.93,15.65.18,1.81.98,3.7,1.97,5.26,1.84,2.92,4.03,5.62,6.06,8.43.84,1.16,1.64,2.34,2.26,3.75-.29-.2-.6-.37-.85-.6-6.07-5.57-11.02-11.97-14.29-19.55-1.67-3.87-2.4-8-1.46-12.19.9-4.04,2.96-7.34,7.29-8.39,3.64-.88,7.6,1.1,10.03,5.02,3.28,5.26,3.61,10.85,1.31,16.58-.47,1.17-1.08,2.29-1.8,3.81.63-.41.99-.58,1.28-.84,4.47-3.88,6.88-9.04,8.88-14.43.16-.43-.04-1.14-.32-1.55-1.71-2.54-3.39-5.1-5.26-7.51-5.88-7.6-16.2-7.17-21.5.87-3.62,5.48-3.64,11.45-1.92,17.49,1.69,5.95,4.77,11.24,8.49,16.15.72.95,1.62,1.84,2.6,2.51,3.89,2.65,6.83,6.17,9.53,9.94,1.14,1.59,2.35,3.15,3.73,4.53,1.77,1.78,4.01,2.01,6.25,1.01,2.16-.96,2.58-2.94,2.47-5.09-.3-6-.6-11.99-.93-17.99Z"></path><path class="cls-2" d="M371.8,289.53c-.34,5.93-.73,11.85-.97,17.78-.04,1.05.32,2.27.88,3.18,2.28,3.74,4.78,7.35,7.04,11.1.54.89.72,2.17.63,3.24-.17,2.12-.72,4.21-.95,6.32-.2,1.81-.19,3.65-.28,5.7,3.87-2.9,6.23-12.11,7.61-28.92.68.82,1.24,1.59,1.9,2.25.63.63,1.36,1.17,2.04,1.74.16-.14.32-.28.47-.43-5.99-7.44-11.99-14.87-17.98-22.31-.13.11-.27.22-.41.34Z"></path><path class="cls-2" d="M440.71,304.02c-.01.12-.03.24-.04.36.03-.11.06-.22.08-.33l-.04-.03Z"></path><path class="cls-2" d="M429.37,312.13c-1.51,1.86.4,3.22.14,4.93-.96-2.05-1.93-4.1-2.88-6.13q-.19.1-1.38-3.47c.22,3.97,1.15,7.25,3.55,10.03-.11.11-.23.22-.34.32-1.37-.95-2.73-1.91-4.08-2.84,1.35,3.18,5.73,5.37,9.82,5.1-.9-1.02-2.11-2.08-2.92-3.39-.83-1.35-1.26-2.94-1.91-4.54Z"></path><path class="cls-2" d="M434.25,316.66c-.17.06-.34.12-.51.17-.83-2.32-1.67-4.64-2.45-6.82-1.4,2.5,1.99,9.66,6.84,11.01-1.42-2.31-2.8-4.56-4.21-6.86.1.74.22,1.61.34,2.49Z"></path><path class="cls-2" d="M421.12,314.14c3.25,4.13,6.26,8.58,12.7,8.67-2.49-1.29-4.86-2.26-6.93-3.67-2.09-1.43-3.86-3.31-5.77-5Z"></path><path class="cls-2" d="M401.32,311.94c.8,1.37,1.61,2.73,2.41,4.09-2.05-1.35-4.1-2.69-6.14-4.05-.54-.36-1.04-.77-1.49-1.1,1,3.97,3.07,7.13,7.79,8.37-1.51-1.29-2.76-2.36-4.01-3.43.07-.09.14-.18.22-.27,1.94.87,3.89,1.74,5.83,2.61,1.15.57,2.3,1.15,3.44,1.72l.18-.17c-2.64-2.65-5.28-5.3-7.92-7.95-.1.05-.21.11-.31.16Z"></path><path class="cls-2" d="M396.08,315.75c-2.76-3.19-5.54-6.41-8.33-9.64,2.01,3.91,3.74,8.08,8.33,9.64Z"></path><path class="cls-2" d="M409.62,317.79c-1.6-2.09-2.92-3.81-4.24-5.53,1.41,3.67,3.39,6.89,7.76,8.09-1.27-1.54-2.43-2.96-3.8-4.62.1.72.16,1.14.28,2.06Z"></path><path class="cls-2" d="M428.94,323.26c-2.37-1.96-4.75-3.92-7.12-5.88.68,2.93,3.67,5.59,7.12,5.88Z"></path><path class="cls-2" d="M430.97,274.51c.07,1.43.17,3.52.27,5.6-.36-2.31-.73-4.63-1.05-6.68-1.63,3.61.41,6.96,1.91,10.38-.21-.98-.42-1.97-.64-2.95,1.06,1.24,2.13,2.48,3.19,3.73.12-.1.25-.19.38-.29-.92-1.61-1.84-3.23-2.76-4.83,0,0,0,0,.01.01,0,0,0,0,0,0,0,0,.05.05.05.06h0c-.5-1.87-1-3.74-1.35-5.02Z"></path><path class="cls-2" d="M429.03,280.57c0-4.33,0-8.67,0-13-.16,0-.32,0-.47,0-.02,4.33-.03,8.65-.05,12.98.17,0,.35.02.52.03Z"></path><path class="cls-2" d="M417.11,320.81c-.54-.41-1.24-.61-1.93-.94.01.21.02.37.03.63-.76-.77-1.47-1.49-2.18-2.2.45,2.18,1.85,3.2,5.8,4.39-.7-.78-1.13-1.43-1.72-1.87Z"></path><path class="cls-2" d="M440.74,303.94s-.02.05-.02.08c0,0,.04.03.04.03,0-.04,0-.07-.01-.11Z"></path><path class="cls-2" d="M440.02,297.38c.26,2.35.49,4.46.72,6.56.84-2.34.69-3.94-.72-6.56Z"></path><path class="cls-2" d="M420.75,319.54c.62,1.23,1.25,2.46,1.87,3.68.2-.15.4-.29.6-.44-.64-1.18-1.29-2.35-1.93-3.53-.18.09-.36.19-.54.28Z"></path></g></svg>