<?xml version="1.0"?><svg id="Capa_2" xmlns="http://www.w3.org/2000/svg" viewBox="0 0 701.46 520.97"><defs></defs><g id="Capa_1-2"><path d="M252.26,484.82c1.84-.95,2.73-2.86,2.73-5.83v-1.19c0-4.81-2.27-7.05-7.14-7.05h-7.27v30.11h7.56c4.78,0,7.31-2.51,7.31-7.27v-2.54c0-3.27-1.05-5.32-3.2-6.24ZM245.72,487.53h1.84c1.8,0,2.77.54,2.77,3.36v2.58c0,2.23-.87,2.68-2.18,2.68h-2.43v-8.63ZM249.85,479.92c0,2.03-.76,2.89-2.56,2.89h-1.58v-7.36h2c1.52,0,2.13.81,2.13,2.81v1.65Z"></path><path d="M273.87,470.75h-6.71l-4.86,29.84-.04.28h4.81l.81-5.8h4.96l.8,5.8h5.15l-4.87-29.91-.03-.2ZM272.17,490.57h-3.64l1.8-12.99,1.84,12.99Z"></path><path d="M300.71,497.03v-5.21c0-3.53-.87-5.51-2.81-6.33,1.86-.96,2.76-2.88,2.76-5.86v-1.82c0-4.81-2.27-7.05-7.14-7.05h-7.14v30.11h5.13v-12.7h1.37c2.03,0,2.68.83,2.68,3.4v5.42c0,2.41.17,2.91.44,3.72l.05.16h5.27l-.14-.33c-.45-1.07-.49-2.13-.49-3.51ZM291.52,475.46h1.88c1.52,0,2.13.81,2.13,2.81v2.29c0,2.03-.76,2.89-2.56,2.89h-1.45v-7.99Z"></path><path d="M321.05,484.82c1.84-.95,2.73-2.86,2.73-5.83v-1.19c0-4.81-2.27-7.05-7.14-7.05h-7.27v30.11h7.56c4.78,0,7.31-2.51,7.31-7.27v-2.54c0-3.27-1.05-5.32-3.2-6.24ZM314.51,487.53h1.84c1.8,0,2.77.54,2.77,3.36v2.58c0,2.23-.87,2.68-2.18,2.68h-2.43v-8.63ZM318.65,479.92c0,2.03-.76,2.89-2.56,2.89h-1.58v-7.36h2.01c1.52,0,2.13.81,2.13,2.81v1.65Z"></path><polygon points="332.4 500.87 345.58 500.87 345.58 496.15 337.54 496.15 337.54 487.53 343.93 487.53 343.93 482.82 337.54 482.82 337.54 475.46 345.58 475.46 345.58 470.75 332.4 470.75 332.4 500.87"></polygon><path d="M367.85,497.03v-5.21c0-3.53-.87-5.51-2.81-6.33,1.86-.96,2.76-2.88,2.76-5.86v-1.82c0-4.81-2.27-7.05-7.14-7.05h-7.14v30.11h5.13v-12.7h1.37c2.03,0,2.68.83,2.68,3.4v5.42c0,2.41.17,2.91.44,3.72l.05.16h5.27l-.14-.33c-.45-1.07-.49-2.13-.49-3.51ZM358.66,475.46h1.88c1.52,0,2.13.81,2.13,2.81v2.29c0,2.03-.76,2.89-2.56,2.89h-1.45v-7.99Z"></path><rect x="376.52" y="470.75" width="5.13" height="30.11"></rect><polygon points="376.15 469.41 380.17 469.41 385.08 463.21 379.36 463.21 376.15 469.41"></polygon><path d="M400.88,470.75h-6.71l-4.86,29.84-.04.28h4.81l.81-5.8h4.96l.8,5.8h5.15l-4.87-29.91-.03-.2ZM399.17,490.57h-3.64l1.8-12.99,1.84,12.99Z"></path><polygon points="433.1 481.19 430.06 470.75 424.6 470.75 430.32 488.05 430.32 500.87 435.46 500.87 435.46 488.05 441.18 470.75 436.14 470.75 433.1 481.19"></polygon><polygon points="461.31 500.87 474.49 500.87 474.49 496.15 466.44 496.15 466.44 487.53 472.84 487.53 472.84 482.82 466.44 482.82 466.44 475.46 474.49 475.46 474.49 470.75 461.31 470.75 461.31 500.87"></polygon><path d="M490.83,483.81h0c-3.08-2.7-4.03-4.14-4.03-6.17,0-1.77.68-2.6,2.13-2.6.97,0,2.09.3,2.09,2.68v1.76h4.88v-1.47c0-4.96-2.49-7.69-7.01-7.69s-7.18,2.77-7.18,7.61c0,3.54,1.38,6.01,5.29,9.45,3.09,2.7,3.98,4.15,3.98,6.47,0,2.44-1.26,2.72-2.22,2.72-1.5,0-2.18-.81-2.18-2.64v-2.27h-4.88v1.93c0,4.96,2.52,7.69,7.1,7.69s7.27-2.76,7.27-7.77c0-3.8-1.32-6.25-5.25-9.71Z"></path><polygon points="502.88 475.46 507.75 475.46 507.75 500.87 512.89 500.87 512.89 475.46 517.76 475.46 517.76 470.75 502.88 470.75 502.88 475.46"></polygon><rect x="525.45" y="470.75" width="5.13" height="30.11"></rect><polygon points="544.64 470.75 539.5 470.75 539.5 500.87 552.3 500.87 552.3 496.15 544.64 496.15 544.64 470.75"></polygon><path d="M566.79,470.33c-4.65,0-7.31,2.8-7.31,7.69v15.58c0,4.89,2.66,7.69,7.31,7.69s7.31-2.8,7.31-7.69v-15.58c0-4.89-2.66-7.69-7.31-7.69ZM564.62,477.72c0-1.83.69-2.68,2.17-2.68s2.17.85,2.17,2.68v16.17c0,1.83-.69,2.68-2.17,2.68s-2.17-.85-2.17-2.68v-16.17Z"></path><path class="cls-1" d="M64.61,254.26l.23.11c2.03.88,3.75,1.68,5.17,2.39-.72-1.66-1.47-3.05-2.24-4.22-1.09-1.67-2.2-2.9-3.27-3.79-.68-.39-1.53-.84-2.51-1.32-.92-.45-1.97-.94-3.14-1.46.12,2.52,1.27,5.86,5.77,8.3Z"></path><path class="cls-1" d="M70.88,465.68v.29c-.01.98.43,1.8,1.3,3.06l.25.37.36.27c4.67,3.59,8.81,6.16,12.52,7.81,3.08-.15,6.17-.4,9.26-.77.25-.92.41-2.08.6-3.51.31-2.33.74-5.88,1.27-10.49,4.64-33.89,9.72-63.67,15.1-88.61,2.12,1.72,5.21,4.52,9.7,9.05l.32.28c.59.44,1.17.87,1.74,1.28,4.17,3.01,7.75,5.18,10.79,6.51,2.07.91,3.89,1.44,5.49,1.59l1.71.17.6-.91,1.18-1.77v-.86c0-1.12,0-2.06-5.06-7.37l-1.54,2.3-.26-.03-3.14-.3c-3.14-.3-6.84-1.74-11.33-4.41-.6-.36-1.21-.73-1.84-1.13-1.95-1.25-4.04-2.71-6.3-4.4l-.34-.25-.3-.3c-1.29-1.3-2.44-2.43-3.49-3.45-.87-.84-1.67-1.6-2.39-2.26-4.99,23.87-9.71,51.93-14.04,83.57-.53,4.64-.96,8.18-1.28,10.54-.17,1.25-.3,2.17-.42,2.83-.25,1.47-.74,2.54-1.33,3.35-.7.95-1.53,1.52-2.32,1.85l-1.49.99-1.94-.41-.41-.09c-3.04-.64-6.34-1.97-9.96-4.01-.95-.54-1.93-1.13-2.93-1.77-.04.36-.08.71-.11,1.02Z"></path><path class="cls-1" d="M16.79,433.98v-1.51l-.06-.9c.04-.29.06-.62.06-.98v-.18c0-4.29.67-9.35,1.97-15.01,2.37-9.77,7.49-19.34,15.22-28.44,1.3-1.39,2.64-2.69,4-3.95,9.06-8.4,19.4-13.93,30.92-16.53,1.05-.24,2.11-.45,3.17-.64.1-.99.18-1.96.28-2.95.09-.98.19-1.97.28-2.95.04-.48.09-.96.14-1.44.07-.77.15-1.56.22-2.33-16.87,1.24-31.01,8.16-43.09,21.05-5.77,6.8-10.01,13.86-12.67,21.05-.76,2.04-1.39,4.08-1.89,6.14-.51,2.22-.91,4.34-1.22,6.34-.45,2.93-.68,5.62-.68,8.03v.18c0,.36-.02.7-.05,1.03l.03.37.02.24v1.75c0,2.54.17,5.06.51,7.58.64,4.77,1.87,9.5,3.71,14.15-.57-3.34-.85-6.7-.85-10.09Z"></path><path class="cls-1" d="M265.61,331.05c-.23-1.67-.5-3.36-.8-5.08h0c-.27-1.53-.55-3.06-.87-4.62-1.02-4.7-2.24-9.21-3.66-13.5-.06-.2-.13-.39-.2-.59.05.21.1.43.15.64h0c.09.4.19.79.28,1.2v.03s.01.03.01.03c1.11,5.38,1.89,10.57,2.34,15.51.15,1.64.26,3.24.33,4.82.07,1.57.12,3.11.12,4.62,0,.03,0,.06,0,.09v3.74c0,8.15-.79,16.36-2.35,24.59-.58,3.04-1.27,6.08-2.05,9.13-1.35,5.2-3,10.42-4.97,15.63-2.15,5.72-4.69,11.44-7.58,17.16-2.02,4-4.2,8-6.58,11.99l-.03.06-.03.06c-15.8,25.19-36.64,45.58-61.96,60.59-7.46,4.56-17.61,9.26-30.16,14l-.12.05-.12.04c-17.96,5.87-34.27,8.84-48.48,8.84h-6.06c-10.35,0-20.81-1.5-31.33-4.47-12.1-3.42-24.27-8.79-36.43-16.09-1.03-.62-2.07-1.24-3.1-1.89l-.06-.04-.05-.04c-2.32-1.53-4.53-3.28-6.64-5.24,4.18,6.04,9.04,10.92,14.51,14.52,11.14,6.98,22.28,12.3,33.36,15.97,12.1,4,24.12,6.04,35.98,6.04h6.06c13.9,0,29.91-2.93,47.59-8.7l.12-.04c12.41-4.67,22.4-9.31,29.68-13.76,14.04-8.32,26.69-18.33,37.84-29.92,8.65-8.99,16.41-18.94,23.22-29.8,5.83-9.79,10.57-19.6,14.2-29.4.85-2.28,1.62-4.56,2.34-6.84,2.63-8.25,4.47-16.47,5.52-24.66.69-5.4,1.06-10.78,1.06-16.14v-3.74c0-3.18-.18-6.51-.51-9.95-.15-1.59-.33-3.2-.56-4.84Z"></path><path class="cls-1" d="M85.96,251.28c.41.84.81,1.71,1.2,2.61,3.06-1.06,6.12-2.05,9.16-2.96,1.66-.5,3.32-.97,4.98-1.43,1.16-.32,2.32-.62,3.48-.91.33-1.08.66-2.14.98-3.22.32-1.05.64-2.11.97-3.16.47-1.51.92-3.05,1.39-4.55-8.58,1.78-17.25,4.17-25.98,7.18.86,1.18,1.68,2.47,2.47,3.86.46.81.91,1.67,1.34,2.56Z"></path><path class="cls-1" d="M136.44,239.65l.6.51.09.13.36.53.54.8.95,1.42c3.61-.24,7.19-.37,10.75-.38.18,0,.36,0,.55,0,11.24,0,21.87,1.2,31.55,3.56.92.24,1.82.48,2.71.73,9.43,2.64,16.97,5.99,22.43,9.95l.29.21.34.13c.34.14,1.45.76,4.44,3.55.74.69,1.6,1.53,2.59,2.5-.53-.76-1.07-1.51-1.62-2.25-.58-.78-1.15-1.57-1.75-2.34-2.87-3.04-5.03-5.2-6.65-6.75-2.93-2.8-4.08-3.56-4.4-3.74l-.57-.23-.59-.43c-5.68-4.12-13.8-7.56-24.14-10.22-1.74-.43-3.53-.8-5.33-1.15-8-1.54-16.56-2.34-25.53-2.34-4.74,0-9.53.21-14.36.62,1.42.95,2.88,2.02,4.37,3.2.79.62,1.58,1.27,2.39,1.95Z"></path><path class="cls-1" d="M113.82,351.33c.82.55,1.66,1.14,2.53,1.77,7.5-32.23,16.18-64.41,25.88-95.79l.4-1.3-1.51-2.27-.3-.26c-1.15-.98-2.27-1.87-3.37-2.71-.3.97-.59,1.95-.89,2.93-.3.99-.6,1.97-.9,2.96-9.18,30.53-17.41,61.74-24.48,92.96.03.02.06.04.09.06.82.51,1.68,1.07,2.56,1.66Z"></path><path class="cls-1" d="M322.28,420.45c-.47-.64-.89-1.31-1.26-1.98-.55-.98-1-1.99-1.36-3.04-.48-1.38-.8-2.81-.95-4.29-2.74,3.58-6.67,7.94-11.87,13.18l-.13.14-.14.13c-3.86,3.4-7.45,5.97-10.83,7.74-2.83,1.48-5.5,2.41-8.04,2.77-.41.06-.82.1-1.23.13-.42.03-.84.05-1.25.05h-1.27l-1.15-.54c-1.82-.85-3.69-1.84-5.6-2.96-1.85-1.08-3.74-2.28-5.66-3.6,1.28,3.1,3.43,5.88,6.45,8.3l.13.1c3.48,2.47,6.86,4.55,10.08,6.2.69.35,1.37.69,2.04,1.01l.58.27h.64c5.47,0,11.83-3.27,19.45-9.98l.14-.13c1.17-1.18,2.26-2.3,3.3-3.38,3.55-3.72,6.34-6.9,8.39-9.59l-.19-.2-.24-.33Z"></path><path class="cls-1" d="M399.64,410.6l-.04.06-.04.06c-11.33,15.67-20.54,23.51-28.79,24.46-.57.07-1.14.1-1.7.1-.68,0-1.34-.09-1.98-.21-.64-.12-1.25-.29-1.85-.51-.07-.03-.14-.04-.21-.07-.87-.34-1.69-.77-2.47-1.27,0,0-.02-.01-.03-.02-.81-.53-1.58-1.12-2.29-1.76-1.07-.96-2.02-2.01-2.84-3.05-1.34,1.18-2.45,2-3.52,2.53-.09.04-.18.09-.26.13-2.67,1.8-5.5,2.71-8.42,2.71h-1.16c-.31,0-.63-.02-.95-.04-2.2-.15-4.49-.82-6.91-2.03-2.32-1.16-4.76-2.81-7.37-4.99.51,1.29,1.17,2.53,2.02,3.7l.26.31c4.88,5.04,9.18,8.44,13.01,10.26,2.21,1.05,4.26,1.58,6.16,1.58h1.16c2.39,0,4.73-.78,6.96-2.32.56-.21,1.32-.66,2.51-1.64.82-.68,1.85-1.6,3.18-2.87,2.18,3.31,4.35,5.61,6.56,6.95,1.54.93,3.09,1.4,4.67,1.4,5.3,0,11.39-3.75,18.48-11.38,3.06-3.29,6.29-7.3,9.73-12.06,1.26-1.85,2.51-3.74,3.73-5.65,1.08-1.69,2.14-3.41,3.19-5.15.07-1.98.22-4.12.45-6.44.24-2.38.56-4.94.96-7.69.34-2.3.74-4.75,1.2-7.32-1.42,2.68-2.89,5.3-4.39,7.88-2.88,4.97-5.88,9.78-9.01,14.36Z"></path><path class="cls-1" d="M457.85,357.48c1.51-.3,2.73-.97,3.62-1.97l.39-.44.19-.56c1.12-3.37,2.1-6.32,2.97-8.95,3.61-10.89,5.22-15.82,5.9-18.21.55-1.94.48-2.22.38-2.67l-.14-.57-.35-.47c-.37-.5-.81-1.05-1.3-1.67l-.25-.32-.33-.23c-.84-.6-1.66-1.16-2.47-1.7-.27.82-.57,1.77-.92,2.84-.02.06-.03.1-.05.16-.22.67-.45,1.39-.7,2.15-.06.17-.11.35-.17.52-1.45,4.43-3.4,10.34-5.83,17.65-.08.24-.16.48-.24.72l-.37,1.12-.79.88c-1.3,1.46-3.1,2.45-5.2,2.87l-.56.11h-.57c-.2,0-.41-.01-.62-.02-2.12-.1-4.36-.74-6.8-1.96,2.11,1.3,4.26,2.81,6.43,4.53.9.52,1.58,1.22,2.09,1.85.38.47.66.9.85,1.2l.91,1.42v1.21c1.19.37,2.3.55,3.35.55h.28l.28-.06Z"></path><path class="cls-1" d="M454.71,365.34c-.73-.58-1.46-1.13-2.19-1.67-.28,1-.55,1.99-.82,2.97-.27,1-.54,2-.81,2.99-2.97,11.1-5.45,21.38-7.4,30.69-.14.69-.3,1.39-.44,2.07-.98,6.43-1.57,11.67-1.76,15.64.57-.39,1.18-.82,1.81-1.28.42-.3.85-.62,1.29-.95.62-.47,1.28-.98,1.96-1.52.04-.25.07-.5.11-.75.35-1.72.72-3.48,1.11-5.27,2.47-11.4,5.7-24.16,9.61-38.03l.11-.38v-1.6l-.46-.71c-.41-.64-1.08-1.67-2.13-2.21Z"></path><path class="cls-1" d="M513.6,429.26l-.43-.45-.09-.09-.36-.65c-.4-.71-.75-1.49-1.07-2.31-.46-1.17-.85-2.45-1.17-3.86-.81.94-1.76,1.87-2.88,2.79-.79.64-1.65,1.28-2.61,1.89-5.45,3.51-13.16,6.24-23.56,8.33l-.11.02-.11.02c-1.78.29-3.58.43-5.37.43h-.98c-1,0-2.06-.11-3.15-.31-.23-.04-.46-.09-.69-.14-.11-.03-.23-.05-.35-.08-.92-.22-1.87-.5-2.87-.86-.94-.34-1.92-.74-2.93-1.21-1.3-.6-2.66-1.32-4.08-2.13-.07.05-.13.11-.2.16-.76.62-1.5,1.22-2.24,1.78-.75.58-1.49,1.12-2.22,1.65-1.13.81-2.23,1.55-3.31,2.23-4.96,3.11-9.42,4.83-13.48,5.23-.62.06-1.23.1-1.83.1-.94,0-1.88-.07-2.82-.2-2.53-.36-5.1-1.22-7.71-2.56-1.96-1.01-3.95-2.29-5.97-3.86.38,1.17.82,2.23,1.33,3.15l.18.33.26.27c4.62,4.78,8.97,8.05,13.14,9.89,2.67,1.18,5.27,1.77,7.81,1.77,5.91,0,13.15-3.59,21.9-10.88.36-.3.72-.6,1.08-.91,2.49,1.53,4.78,2.73,6.88,3.6,2.84,1.18,5.33,1.78,7.49,1.78h.98c1.63,0,3.28-.13,4.91-.39l.11-.02c11.46-2.31,19.68-5.44,24.79-9.48,1.34-1.06,2.46-2.17,3.37-3.36-.04-.04-.08-.07-.11-.11-.51-.49-1.02-1.01-1.53-1.53Z"></path><path class="cls-1" d="M521.03,349.68c-.32-.26-.64-.5-.97-.74-.09,1.27-.25,2.49-.49,3.68-.39,1.99-.99,3.88-1.79,5.64-.9,1.98-2.07,3.82-3.48,5.5-.46.54-.93,1.07-1.44,1.58l-.85.85-1.12.44c-1.31.51-2.53.82-3.68.95-.39.04-.78.06-1.16.06-1.35,0-2.83-.31-4.82-1.31-.51-.25-1.04-.55-1.62-.91-.73-.44-1.52-.97-2.39-1.59-.77-.55-1.6-1.17-2.5-1.88-.42,1.01-.66,2.04-.66,3.07v2.05c0,.28.02.62.08,1.02.13.99.46,2.36,1.19,4.22.49,1.27,1.18,2.77,2.1,4.52v-.16c0-2.43.92-4.9,2.74-7.41,6.37,5.34,9.32,6.77,11.22,7.08.33.05.63.08.91.08.71,0,1.47-.12,2.28-.33.24-1.13.49-2.28.75-3.45.24-1.1.49-2.21.75-3.35l.02-.07.02-.07c1.58-6.18,2.91-11.23,4.01-15.21.42-1.51.8-2.87,1.16-4.07l-.22-.18Z"></path><path class="cls-1" d="M545.46,414.29c.04-.25.07-.5.11-.75.79-3.86,1.68-7.91,2.65-12.11.74-3.18,1.52-6.44,2.36-9.8,1.7-6.79,3.6-13.93,5.71-21.4l.11-.38v-1.6l-.46-.71c-.41-.64-1.08-1.67-2.13-2.21-.74-.58-1.47-1.13-2.19-1.67-.28,1-.55,1.99-.82,2.97-.27,1-.54,2-.81,2.99-.91,3.41-1.78,6.74-2.6,10-1.58,6.27-2.99,12.25-4.21,17.88-.21.96-.4,1.88-.59,2.82-.08.37-.16.74-.23,1.11-.07.32-.14.65-.2.97-.02.11-.03.21-.05.31-.95,6.28-1.53,11.42-1.72,15.33.57-.39,1.18-.82,1.81-1.28,1-.73,2.08-1.55,3.25-2.47Z"></path><path class="cls-1" d="M561.7,438.47c-.45-.83-.87-1.72-1.24-2.68-.53-1.38-.96-2.89-1.32-4.54-1.02.83-2.02,1.61-3.01,2.33-1.45,1.07-2.85,2.03-4.22,2.89-4.97,3.11-9.43,4.83-13.48,5.23-.62.06-1.23.09-1.83.09-.94,0-1.88-.07-2.82-.2-2.53-.36-5.1-1.22-7.71-2.56-1.96-1.01-3.95-2.29-5.97-3.86.38,1.17.82,2.23,1.33,3.15l.18.33.26.27c4.62,4.78,8.97,8.05,13.14,9.89,2.67,1.18,5.27,1.77,7.81,1.77,4.78,0,10.44-2.35,17.06-7.11,1.1-.79,2.23-1.65,3.38-2.57-.14-.18-.28-.36-.41-.55-.41-.58-.8-1.2-1.16-1.86Z"></path><path class="cls-1" d="M570.39,324.66c-.09-.37-.26-.73-.54-1.12-1.22-1.67-2.58-2.69-4.29-3.84-.27.82-.57,1.77-.92,2.84-.02.06-.03.1-.05.16-.27.82-.56,1.71-.87,2.67-1.49,4.57-3.53,10.73-6.07,18.37l-.37,1.12-.79.88c-1.3,1.46-3.1,2.45-5.2,2.87l-.56.11h-.57c-.2,0-.41-.01-.62-.02-2.12-.1-4.36-.74-6.8-1.96.99.49,1.92,1.22,2.83,1.85,1.01.7,2.03,1.42,2.99,2.2,1.59,1.29,3.02,2.46,4.05,4.28.21.36.4.75.4,1.17,0,.19-.03.39.03.57.14.4,1.17.45,1.52.52.6.11,1.21.17,1.82.17h.29l.28-.06c1.51-.3,2.73-.97,3.62-1.97l.39-.44.19-.56c.86-2.59,1.64-4.93,2.35-7.07,1.77-5.33,3.55-10.65,5.26-15.99.59-1.83,1.3-3.71,1.64-5.61.08-.43.08-.8,0-1.16Z"></path><path class="cls-1" d="M636.07,510.19l-2.44,1.22-.13.06-.23.12-1.21.61h-2.22l-.5-.09c-.11-.02-.23-.05-.34-.07-3.19-.62-6.51-1.91-10.02-3.91-1.92-1.09-3.9-2.4-5.94-3.92,1.23,2.15,2.55,4.18,3.96,6.08l.2.27.26.22c4.79,4.01,9.16,6.83,13.23,8.53,1.86.78,3.66,1.32,5.4,1.63l1.54.04,2.55-1.27v-3.25l-.56-.76c-1.26-1.71-2.44-3.55-3.53-5.5Z"></path><path class="cls-1" d="M635.13,372.37c.26-1.26.51-2.51.78-3.79.33-1.45.68-2.89,1.01-4.34,8.29-35.78,18.1-71.52,29.22-106.29l.14-.43v-.45c0-1.36-.82-2.45-2.66-4.38l-.2-.21-.24-.17c-.61-.43-1.2-.82-1.77-1.21-.3.95-.6,1.9-.9,2.85-.3.95-.6,1.9-.9,2.86-10.29,33.04-19.41,66.86-27.13,100.7-.31,1.5-.61,2.97-.91,4.45-1.04,5.1-2,10.09-2.87,14.96-.76,4.21-1.45,8.32-2.08,12.35,1.07-3,2.43-6.08,4.07-9.24,1.31-2.52,2.78-5.08,4.45-7.68Z"></path><path class="cls-1" d="M622.27,458.26c.87,11.41,2.82,21.26,5.82,29.5-1.98-9.42-2.99-20.26-2.99-32.48,0-9.12.56-19.13,1.66-29.96.21-2.03.43-4.08.68-6.17l-.07-.11c-.93-1.32-1.69-2.78-2.28-4.37-.58-1.56-.99-3.25-1.24-5.06-.37,3.25-.68,6.42-.95,9.53-.76,8.76-1.15,16.94-1.15,24.49,0,5.13.18,10,.53,14.62Z"></path><path class="cls-1" d="M619.15,278.86c.81-2.77,1.59-5.45,2.36-8.06.31-1.04.61-2.07.91-3.08-.64-.49-1.27-.95-1.9-1.4-.28.98-.57,1.97-.84,2.94-.28.99-.56,1.96-.83,2.94-8.81,31.08-15.74,58.44-20.76,81.98-4.14,19.39-6.98,36.18-8.52,50.32-.43,3.98-.76,7.75-.99,11.31-.29,4.51-.41,8.68-.36,12.51v.04s0,.04,0,.04c0,2.95.18,5.59.51,7.93.42,2.97,1.09,5.45,2.03,7.39l.58,1.19v1.5c0,1.69-.66,3.2-1.74,4.3-.71.72-1.61,1.26-2.62,1.55-.55.16-1.12.24-1.73.24h-.27l-.27-.03c-.3-.03-.6-.07-.9-.11-2.91-.45-6.3-1.79-10.33-4.09-1.4-.8-2.88-1.72-4.44-2.75.87,2.57,2.04,4.64,3.53,6.22l.18.2.22.16c4.92,3.56,9.08,6.06,12.55,7.55,1.71.74,3.26,1.22,4.65,1.47.36.06.71.12,1.05.15h.27c.77.01,1.46-.26,2.01-.69-.61-3.96-1.08-8.09-1.4-12.4-.33-2.44-.51-5.14-.51-8.15-.02-1.19,0-2.43,0-3.69-.01-1.03-.04-2.06-.04-3.11,0-19.45,2.42-42.49,7.21-68.92,4.61-25.4,11.4-53.92,20.38-85.42Z"></path><path class="cls-1" d="M654.02,411.33c4.79-1.41,8.39-5.11,11.23-9.05,2.84-3.94,6.01-8.5,6.91-13.34.28-1.5.41-3.02.41-4.56v-2.32c0-.81-.07-1.7-.22-2.65-.73.53-1.45,1.11-2.17,1.75-.7.62-1.41,1.3-2.1,2.03-1.48,1.54-2.94,3.31-4.38,5.3-2.48,3.89-4.76,7.93-6.58,12.17-1.28,2.97-3.41,7.38-3.11,10.67Z"></path><path class="cls-1" d="M701.31,375.15c-.54-2.15-2.39-3.55-5.97-4.4-.75.8-1.57,1.51-2.4,2.14.02.11.04.21.06.32.22,1.01.41,2.02.57,3.01.08.52.16,1.04.23,1.56.14,1.1.25,2.19.31,3.26.05.85.08,1.68.08,2.52,0,1.45-.07,2.9-.18,4.36-.34,4.22-1.18,8.42-2.51,12.59-1.11,3.47-2.55,6.91-4.33,10.32-1.56,3.2-4.66,6.91-9.76,11.68l-.11.1-.12.1c-4.21,3.53-8.52,6.2-12.91,7.99-4.14,1.69-8.36,2.58-12.61,2.69-.3,0-.59.02-.89.02-.6,0-1.21-.04-1.82-.11-2.3-.25-4.64-.96-7.03-2.14-2.48-1.22-5.02-2.94-7.63-5.18.46,1.1,1.01,2.12,1.66,3.05l.21.26c4.94,5.52,9.5,9.23,13.78,11.2,2.44,1.13,4.8,1.69,7.07,1.69,8.38,0,16.64-3.37,24.57-10.03l.11-.1c1.74-1.63,3.24-3.13,4.51-4.52,2.24-2.44,3.78-4.55,4.65-6.36,4.46-8.5,6.72-17.24,6.72-25.97,0-3.82-.55-7.82-1.65-11.9,3.4-2.24,6.23-4.91,5.4-8.16Z"></path><path class="cls-2" d="M67.15,148l.06.19s.03.08.05.14c.08.26.22.7.71,1.08.28.13.71.5.94.7.12.32.43.61.77.72.04.08.08.16.12.23.04.07.08.16.09.16v.15s.11.11.11.11c.25.31.72.62,1.29.62.05,0,.1,0,.15,0l.64-.06.13-.15c.11-.14.21-.15.36-.16l4.35-.42c.61-.06,1.19-.13,1.8-.21.63-.08,1.29-.17,2.02-.24l2.22-.21c.27-.03.57-.2,1.06-.51l.31-.19c.44-.02.87-.03,1.31-.05,1.08-.04,2.2-.08,3.33-.18l1.69-.16c.33-.03.99-.1,3.17-.14.21.12.48.16.69.13.16-.01.32-.05.47-.1.11-.03.21-.06.32-.07l.91-.44v.07c.17.02.43.06.67.03.17-.02.37-.04.55-.16.09-.06.19-.17.25-.33l.07.05h.16c.19-.03.33-.12.44-.2.17.05.46.11.9.06l.65-.06.11-.28c.06-.16.06-.32.04-.51l.19-.24.34-.03-.56-.69c-.14-.17-.31-.26-.47-.32l-.64-.51s-.11-.09-.17-.15c-.12-.13-.32-.34-.63-.37-2.47-1.08-4.44-1.57-5.85-1.43l-.34.03c-.6-.2-1.16-.15-1.75-.1-1.44-.25-2.99-.16-4.46-.02l-3.29.31c-1.41.13-2.82.33-4.32.54-1.48.21-3.02.43-4.54.57-1.5.14-3.03.2-4.56.17-.22.02-.33.03-.97-.22l-.11-.04h-.11c-.4.05-1.48.76-1.39,1.7.03.3.2.46.33.57.05.33.26.5.42.61Z"></path><path class="cls-2" d="M66.46,198.02c.03.37.07.69.19.97,2.05,6.03,7.08,7.29,11.62,7.29,1.03,0,2.04-.07,2.98-.16,1.02-.1,3.52-.43,5.01-1.47,2.18-.28,5.36-2.4,5.82-2.76.24-.15.53-.47.91-.92.15-.17.27-.32.31-.36h.02s-.21-.33-.21-.33c.03-.04.07-.07.1-.11l.13-.15v-.07c.06-.08.2-.19.21-.21.22-.02.51-.16.65-.5.02-.04.05-.1.01-.1h0l.2-.07s2.04-1.71,1.84-2.32l-.13-.37-.22.02c.07-.16.11-.35.09-.6l-.11-1.15-.85,1.03-.18.02c.02-.09.03-.2.02-.33l-.05-.47h-.01c.02-.11.01-.23-.06-.35l-.16-.25h-.13s-.06-.08-.09-.13l-.15-.29-.32.03c-.77.07-1.86,2.23-1.85,2.23-1.33,1.87-7.2,4.56-12.16,5.03-1.28.12-5.5.26-5.83-3.18-.49-5.2.71-10.55,1.87-15.73l.4-1.82.02-.56s.1-.01.16-.02c.33-.09.62-.16.89-.23.49-.12.95-.23,1.47-.45,2.37-.38,4.03-.77,6.12-1.26l.91-.22c1.59-.15,4.21-.73,5.93-1.49l1.5-.66c.43-.07.87-.13,1.32-.2,1.51-.24,3.07-.48,4.69-.63l3.08-.3-1.69-.74c-.57-.25-.68-.34-.68-.32,0-.05-.01-.1-.02-.14l1.25-.12-.72-.71c-1.88-1.88-8.2-1.45-13.99-.9l-.45.04c-3.26.31-5.12.57-8.08,1.15.08-.38.15-.67.29-1.11.52-2.14,1-4.27,1.64-7.34l.03-.1v-.07c.02-.1.04-.21.03-.22.39-1.82,1.31-6.1,1.09-8.38-.05-.53-.08-.85-.21-1.1-.44-1.68-2.84-2.6-4.29-2.45-1.84.17-2.97,1.08-3.02,2.47.04.37.07.71.34.97-.15,4.42-2.98,14.93-4.04,18.83-1,.23-1.89,1.03-2.14,1.95-.12.23-.1.49-.08.69.08.88.61,1.69.95,2.22l.04.06c-.14.73-.32,1.57-.51,2.49-.92,4.42-2.18,10.47-1.84,14.81l.15,1.61Z"></path><path class="cls-2" d="M106.36,207.01l.81.48.16-.02c1.68-.23,3.34-.43,4.99-.6l.57-.06-.16-.55c-.31-1.06-.53-2.25-.66-3.54l-.15-1.62c-.51-5.3.01-14.33,1.54-26.84,1.73-12.43,3.8-25.11,6.15-37.7v-.07s0-.07,0-.07c-.04-.4-.31-.78-.9-1.2-2.74-1.69-4.87-2.58-6.62-2.74l-.28.03c-.46.05-.61.49-.86,2-5.94,31.7-8.42,53.29-7.38,64.19.42,4.36,1.32,7.09,2.78,8.33Z"></path><path d="M257.65,325.33c-.15-1.7-.35-3.45-.58-5.19-.13-.95-.27-1.92-.42-2.89-.23-1.49-.51-3.07-.82-4.69l-.04-.22c-.13-.7-.27-1.41-.42-2.13-.06-.29-.13-.58-.2-.87l-.26-1.1c-.34-1.46-.69-2.9-1.07-4.32-1.68-6.32-3.79-12.31-6.25-17.8-2.95-6.57-6.5-12.58-10.54-17.87-.4-.52-.81-1.04-1.22-1.55-.84-1.05-1.6-1.96-2.3-2.76-4.1-4.99-9.31-10.14-15.5-15.31-10.72-8.28-21.97-15.04-33.42-20.1-5.1-2.25-10.3-4.21-15.47-5.8-2.5-.77-5.12-1.5-7.81-2.15-10.69-2.62-21.78-3.94-32.98-3.94h-3.83c-10.55,0-22.13,1.38-34.43,4.11-16.18,4.09-27.91,8.12-34.87,11.99l-.25.14v.99c0,2.79,1.52,5.03,4.57,6.68.91.39,1.76.77,2.55,1.14,1.2.55,2.3,1.08,3.37,1.63l1.44.78c.21.12.41.23.55.31.26.2.51.41.76.63,2.15,1.89,4.07,4.49,5.69,7.74.85,1.69,1.63,3.59,2.32,5.63.97,2.86,1.81,6.14,2.5,9.73,1.63,8.53,2.46,19.18,2.46,31.68v4.42l.04.06c-.03.07-.04.15-.04.24v1.51c0,7.2-.56,19.75-1.66,37.31-1.35-.01-3.2-.07-5.52-.18h-.8c-13.57,0-26.94,4.01-39.75,11.94-7.62,5.17-14.07,11.45-19.21,18.68-9.45,15.04-14.24,30.06-14.24,44.63v4.19c0,8.04,1.52,16.1,4.52,23.94,1.44,3.77,3.24,7.55,5.36,11.26.57.87,1.15,1.71,1.74,2.53,2.3,3.19,4.84,6.06,7.57,8.53.64.58,1.3,1.15,1.96,1.69,1.25,1.01,2.42,1.87,3.58,2.64.66.41,1.31.81,1.97,1.2l.65.39c1.81,1.09,3.78,2.22,6.02,3.45l.68.37c.5.28.99.55,1.49.81l.67.36c.48.26.95.51,1.43.76,8.19,4.2,16.5,7.52,24.7,9.87,2.45.7,5.01,1.35,7.6,1.91,7.69,1.67,15.38,2.51,22.87,2.51h6.06c11.14,0,23.71-1.92,37.37-5.71,3.1-.86,6.29-1.82,9.5-2.87,12.27-4.62,22.13-9.19,29.31-13.58,24.61-14.59,44.87-34.4,60.23-58.9.4-.68.79-1.35,1.18-2.03l.43-.75c6.99-12.17,12.31-24.45,15.82-36.48,1.49-5.1,2.68-10.29,3.55-15.43,1.2-7.11,1.81-14.22,1.81-21.12v-3.74c0-1.17-.03-2.46-.09-3.97-.07-1.72-.18-3.32-.32-4.91ZM202.13,243.33l.11.06c.55.22,1.34.74,2.36,1.55,2.18,1.74,5.41,4.85,9.59,9.24l1.04,1.09c2.04,2.6,4.03,5.38,5.9,8.27,2.78,4.3,5.29,8.87,7.45,13.59,3.26,7.11,5.78,14.71,7.49,22.58,1.89,8.72,2.85,17.95,2.85,27.45,0,5.97-.57,12.49-1.69,19.37-.9,5.54-2.16,11.3-3.72,17.12-3.42,11.8-8.33,23.46-14.58,34.66-3.66,6.54-8.95,14.11-15.74,22.5-3.74,5.22-10.83,12.6-21.06,21.95l-1.04.95c-7.96,6.43-15.05,11.57-21.06,15.29-26.83,15.86-54.13,23.91-81.12,23.91-8.61,0-17.46-.98-26.3-2.91-2.43-.53-4.61-1.06-6.62-1.61-2.66-.82-5.17-1.76-7.48-2.8-3.9-1.75-7.35-3.83-10.26-6.2-2.23-1.81-4.18-3.83-5.8-5.97-.89-1.23-1.79-2.56-2.76-4.05-2.92-4.52-5.31-9.16-7.1-13.79-.96-2.48-1.77-4.99-2.4-7.46-1.32-5.15-1.99-10.46-1.99-15.77v-1.55s-.08-.98-.08-.98c.06-.22.08-.5.08-.85v-.45c.03-4.41.72-9.56,2.04-15.3.55-2.26,1.27-4.58,2.12-6.89,2.88-7.73,7.47-15.33,13.62-22.57,14.27-15.27,32-23.02,52.68-23.02h.1l-1.32,14.31c-1.16,12.06-2.47,24.27-3.89,36.3-3.67,28.8-5.86,46.62-6.51,53,0,.2.06.49.83,1.6l.16.2c1.07.82,2.16,1.62,3.44,2.51l.25.17c.22.16.45.31.67.46l.69.46c.29.19.57.37.85.55l.24.15c1,.63,1.89,1.16,2.72,1.62,2.99,1.66,5.72,2.76,8.1,3.26l.19.04.17-.11c.09-.06.15-.08.19-.1.59,0,.69,0,2.35-14.4,4.87-35.56,10.22-66.64,15.91-92.37.71.44,1.58,1.06,2.59,1.87.58.46,1.2.97,1.86,1.54.75.65,1.54,1.35,2.4,2.14.49.45,1,.93,1.52,1.43l.24.22c1.33,1.27,2.79,2.7,4.39,4.31,4.51,3.39,8.41,5.84,11.57,7.3,2.02.93,3.79,1.47,5.25,1.62l.33-.05.55-.82v-.14c0-.53,0-1.63-10.86-12.22-2.97-2.54-5.78-4.81-8.36-6.76-.87-.66-1.71-1.27-2.53-1.85-.88-.63-1.73-1.21-2.55-1.75-1.33-.88-2.57-1.64-3.68-2.26-.46-.26-.92-.5-1.36-.73l.8-3.2c7.25-32.05,15.76-64.29,25.29-95.82l2.57-8.45-.66-.99.02-.04-.59-.45c-.51-.43-1.02-.84-1.52-1.24-.57-.46-1.13-.88-1.7-1.3-1.28-.96-2.43-1.75-3.52-2.44-2.12-1.34-4.16-2.39-6.06-3.12l-.33-.12c-.1-.04-.19-.07-.29-.1l-.18-.06c-1.19-.42-2.23-.7-3.27-.88h-.5l-.53.35-.05.16c-.45,1.4-.88,2.82-1.32,4.24l-.87,2.79c-.23.74-.46,1.49-.69,2.24l-.97,3.15c-1.3,4.28-2.58,8.6-3.85,12.94-3.43,11.74-6.79,23.96-9.99,36.31l-.11.42c-.7,2.71-1.4,5.42-2.09,8.15-.77,3.05-1.52,6.13-2.28,9.21l-1.17,4.78c-.22.93-.44,1.86-.66,2.8l-1.07,4.51s-.01.06-.02.09c.06-1.39.1-2.76.15-4.12.15-4.58.22-8.64.22-12.42,0-4.12-.08-8.19-.24-12.11-.4-9.71-1.32-18.44-2.72-25.96l-.12-.63c-.41-2.14-.85-4.15-1.31-6-.63-2.17-1.31-4.22-2.02-6.1-.78-2.07-1.63-4.01-2.53-5.78-.47-.93-.95-1.79-1.41-2.56-2.01-3.35-4.29-5.94-6.84-7.76,19.33-7.41,38.49-11.94,56.98-13.47,3.62-.3,7.26-.49,10.82-.56,10.59-.22,20.89.59,30.37,2.44,2.06.4,3.75.77,5.3,1.15l.47.13c.86.23,1.71.45,2.54.69l.16.05c.88.25,1.75.51,2.6.77,8.3,2.56,15.09,5.74,20.18,9.43ZM179.49,232.67h0s0,0,0,0Z"></path><path d="M418.82,363.9c.71-1.69,1.42-3.38,2.11-5.11,1.92-5.05,3.76-10.54,5.47-16.3l.33-1.11c.33-1.12.67-2.24.98-3.37.15-.54.29-1.09.43-1.64.1-.38.19-.76.29-1.14l.15-.58c.19-.73.38-1.46.57-2.2l.16-.63c.06-.22.12-.44.17-.66l.12-.52v-.62l-.88-.57c-.99-.63-1.91-1.18-2.73-1.64-.36-.2-.72-.4-1.06-.57-.62-.31-1.25-.6-1.93-.87-1.44-.57-2.61-.85-3.59-.85h-1.17l-.31,1.11c-3,11.09-5.93,20.6-8.69,28.25-6.11,15.88-12.46,28.78-18.88,38.33-.4.6-.8,1.18-1.23,1.8-.7,1.23-1.62,2.6-2.79,4.18-1.15,1.55-2.46,3.16-3.94,4.86l-.1.12c-.74.84-1.54,1.73-2.38,2.62-1.01,1.09-2,2.13-2.99,3.14.04-1.88.31-4.18.79-6.83l.46-2.06c3.17-14.17,5.03-24.49,5.55-30.67.04-.48.07-.94.09-1.38.04-.66.06-1.27.06-1.82v-1.77c0-1.84-.12-3.09-.34-3.83-.03-.11-.07-.21-.1-.3-.05-2.53-2.07-5.16-6.17-8.04-2.4-1.68-4.62-3.1-6.61-4.24-1.25-.71-2.42-1.31-3.48-1.78l-.17-.08h0c-1.3-.57-2.38-.93-3.39-1.12l-.95.44.16.41c.85,2.26,1.32,4.84,1.37,7.66v.26c.02.08.02.17.02.26,0,1.77-.08,3.73-.23,5.8-.06.77-.13,1.56-.2,2.36-.24,2.45-.57,5.01-.99,7.61l-.25,1.31c-2.27,11.8-3.95,21.02-4.99,27.41-.17,1.01-.32,1.96-.45,2.83-.17,1.14-.32,2.16-.45,3.07l-.05.07c-.69.72-1.35,1.4-2.02,2.08l-1.06,1.07c-1.03,1.02-1.99,1.96-2.9,2.82-1.13,1.06-2.16,1.98-3.06,2.72-.17.14-.34.28-.5.41-.25.2-.49.39-.72.56-1.65,1.23-2.37,1.42-2.66,1.43-.1-1.77-.15-3.02-.15-3.62,0-3.39.45-7.19,1.32-11.28,2.85-10.81,4.75-18.97,5.64-24.24.19-1.15.35-2.21.45-3.16.03-.3.06-.59.08-.86.05-.58.08-1.1.08-1.54,0-.33-.03-.65-.07-.98-.33-3.02-2.2-5.75-5.63-8.15l-.13-.1c-1.13-.72-2.24-1.37-3.29-1.92l-.11-.05c-.85-.44-1.72-.85-2.64-1.23-.74-.31-1.39-.55-1.98-.74-1.49-.49-2.94-.8-4.35-.94-.62,0-1.34.38-2.19,1.15-.8.73-1.72,1.81-2.79,3.29-.71.98-1.5,2.15-2.34,3.47l-.25.39c-1.27-.7-2.52-1.35-3.75-1.92l-.12-.06c-.41-.19-.82-.37-1.27-.56-1.15-.48-2.29-.9-3.4-1.24-2.25-.69-4.29-1.05-6.08-1.05h-.98c-2,0-4.29.46-6.8,1.38-2.24.81-4.68,1.99-7.22,3.48-2.43,1.19-5.75,3.81-9.88,7.77-1.05,1.01-2.16,2.11-3.31,3.29-.48.49-.96.99-1.48,1.53-1.89,2.19-3.64,4.38-5.21,6.52-.43.59-.86,1.18-1.26,1.76-5.48,7.92-8.26,15.1-8.26,21.34v.98c0,3.76,1.18,7.17,3.5,10.15.84,1.08,1.84,2.11,2.97,3.07l.19.16c.1.09.19.18.32.28.95.68,1.89,1.31,2.82,1.92,1.5.99,2.99,1.9,4.42,2.72,1.54.88,3.06,1.67,4.51,2.35l.2.05c.53,0,1.08-.04,1.69-.13.31-.04.63-.1.96-.17.98-.21,2.01-.52,3.07-.95,3.57-1.44,7.66-4.18,12.18-8.16,3.51-3.54,6.47-6.71,8.79-9.43,2.46-2.88,4.27-5.32,5.34-7.21,4.16-5.73,7.99-11.64,11.43-17.61-.39,1.27-.76,2.5-1.1,3.69-.54,1.88-1.03,3.64-1.44,5.24-1.47,5.74-2.24,10.2-2.27,13.33v.51c0,1.3.17,2.58.53,3.83.32,1.11.78,2.19,1.38,3.21.24.4.49.79.81,1.23.27.28.54.55.8.81l.11.11c.96.97,1.89,1.86,2.75,2.64,1.07.98,2.15,1.89,3.18,2.7,3.31,2.59,6.28,4.16,8.82,4.65.45.09.9.14,1.4.16h.12c.09.02.18.02.27.02h1.16c.46,0,.94-.04,1.44-.13.99-.17,1.98-.51,2.96-1.04.56-.3,1.1-.64,1.57-.99.46-.08,1.27-.54,3.33-2.41l.92-.83h-.02c.39-.37.82-.78,1.26-1.21.53-.52,1.1-1.08,1.71-1.69.05.13.1.26.16.4.18.31.37.62.55.92.16.26.31.5.47.74l.13.21c.35.53.69,1.04,1.03,1.51.17.24.35.48.52.71.59.77,1.19,1.48,1.79,2.1.33.34.66.65.98.94.83.73,1.67,1.3,2.54,1.7.16.07.32.14.49.2.71.26,1.41.39,2.09.39.13,0,.26-.01.39-.02l.33-.02c.16,0,.31-.02.47-.04h.15c2.87-.41,6.14-2.12,9.72-5.08.94-.78,1.92-1.65,2.9-2.6,3.74-3.61,7.86-8.53,12.27-14.63,4.12-6.04,8.13-12.62,11.92-19.56,1.91-3.51,3.59-6.73,5.12-9.86,2.16-4.4,4.33-9.19,6.47-14.31h0ZM319.47,375.86l-.25.43c-2.88,5.08-6.25,10.57-10.03,16.3-1.82,2.76-3.58,5.38-5.39,7.98-4.43,5.85-8.37,10.43-11.71,13.63-1.6,1.53-3.08,2.76-4.42,3.67-1.05.71-2.02,1.24-2.89,1.57.01-4.35,1.49-9.42,4.41-15.08,2.34-5.09,7.11-11.41,14.14-18.73,4.16-3.63,7.83-6.46,10.91-8.39.29-.18.57-.35.84-.52,2-1.19,3.76-2,5.24-2.4-.28.51-.58,1.02-.87,1.54ZM366.82,347.58h0s0,0,0,0Z"></path><path d="M630.76,504.47l-.29-.43c-2.92-4.24-5.42-9.21-7.42-14.77-4.35-12.09-6.56-27.44-6.56-45.64,0-23.57,3.65-52.92,10.86-87.23,7.85-34.4,17.18-68.96,27.75-102.72l2.54-8.1.02-.14c0-.32-.15-.8-2.08-2.8-5.62-3.89-10.02-6.48-13.08-7.7-.57-.23-1.09-.41-1.56-.54-.74-.21-1.4-.32-1.95-.32h-.7l-.11.33c-3.66,11.14-8.37,26.59-14,45.91-18.17,63.78-27.38,115.22-27.38,152.88,0,18.34,2.25,33.94,6.7,46.38,2.09,5.86,4.72,11.13,7.8,15.66l.12.17c.38.56.76,1.13,1.16,1.67l.24.32h.07c.52.43,1.04.84,1.55,1.24l.75.6c.19.14.37.28.55.41l.59.43c.28.21.56.41.83.61l.39.28c3.48,2.45,6.81,4.2,9.88,5.2,1.1.36,2.01.6,2.93.76h.36l.83-.37v-.98l-.09-.13c-.24-.32-.46-.66-.69-.99Z"></path><path d="M692.82,364.41c-.08-.97-.84-1.77-2.25-2.36-.11-.05-.24-.09-.42-.16-1.58-.58-3.94-.98-7.02-1.21-.74-.05-1.53-.1-2.36-.13-4.24-2.83-7.81-4.78-10.63-5.8-1.61-.59-3-.88-4.14-.88h-.53l-.2.04c-5.06,2.28-7.41,4.11-7.41,5.78,0,.22.07.52.95,1.68,1.79,1.77,3.98,3.46,6.5,5.03.56.35,1.14.7,1.74,1.04l.25.14c.28.16.56.32.86.48.98.52,2.03,1.04,3.21,1.58,1.47.68,2.89,1.27,4.33,1.82.78,2.25,1.36,4.38,1.71,6.34.21,1.17.34,2.27.39,3.29.02.33.03.65.03.97v2.32h.48l-.48.2c0,1.1-.07,2.2-.2,3.25-.96,8.42-5.55,16.34-13.59,23.51-1.78,1.26-3.48,2.38-5.06,3.33-1.25.76-2.46,1.43-3.6,2-1.16.58-2.25,1.05-3.25,1.41-.26.09-.51.17-.76.25-1.05.33-2,.52-2.83.57-.09-1.11-.14-1.93-.14-2.45v-1.34c0-8.25,3.69-18.2,10.96-29.58,1.31-1.82,2.68-3.52,4.08-5.07.69-.76,1.38-1.47,2.05-2.12,1.03-.99,2.09-1.91,3.16-2.73.34-.26.68-.52,1.02-.76l.2-.14v-.76l-.95-1.3-.34-.21c-1.07-.88-2.16-1.72-3.32-2.58-.8-.59-1.59-1.14-2.37-1.66-1.95-1.3-3.68-2.3-5.29-3.07-.79-.38-1.6-.72-2.56-1.07-1.23-.45-2.31-.76-3.3-.94l-.11-.02-.11.03c-2.08.57-5.45,3.68-10.34,9.55-.78,1.15-1.56,2.36-2.38,3.68-3.82,6.16-6.58,12.04-8.2,17.48-1.17,3.92-1.77,7.73-1.8,11.41v.14c0,4.36.96,7.93,2.88,10.66l1.34,1.46c.77.82,1.52,1.58,2.27,2.3,1.18,1.14,2.36,2.19,3.52,3.11.61.49,1.21.94,1.81,1.36.83.59,1.63,1.1,2.37,1.52l.12.06h0c.35.2.7.38,1.04.56l.16.07c.33.16.66.32.99.45,1.53.65,3.03,1.04,4.46,1.16.33.03.67.05,1,.05.1,0,.21,0,.31,0h.21c.99-.02,1.97-.09,2.91-.2.95-.11,1.93-.28,2.91-.49,1.65-.37,3.32-.88,4.95-1.53,3.95-1.57,7.9-4.01,11.76-7.25,4.14-3.87,6.93-7.08,8.3-9.54l.07-.13c.1-.18.2-.37.28-.52,2.54-4.82,4.35-9.79,5.39-14.76.71-3.41,1.08-6.82,1.08-10.14,0-2.61-.28-5.33-.82-8.09-.18-.93-.41-1.91-.68-2.93-.17-.65-.35-1.3-.55-1.95.3-.18.58-.36.86-.53,3.54-2.25,5.2-4.1,5.07-5.65Z"></path><path d="M434.29,332.22c.32.57.77,1.21,1.37,1.95.16.2.33.4.55.66.95.87,1.91,1.72,2.85,2.5.86.72,1.64,1.34,2.4,1.89.53.4,1.05.76,1.56,1.1.31.21.62.41.92.59,1.48.92,2.86,1.61,4.09,2.03,1.03.35,2.01.54,2.94.56h.13s.06,0,.06,0c.99-.2,1.77-.61,2.31-1.22l.45-1.23c2.55-7.68,4.55-13.75,6-18.17l1.09-3.34c.35-1.09.65-2.03.9-2.81.91-2.89.9-2.96.85-3.13l-.08-.17c-.36-.48-.78-1.02-1.26-1.62l-.1-.09c-.23-.16-.45-.31-.67-.46l-.37-.25c-.52-.36-1.03-.71-1.53-1.04-3.55-2.37-6.73-4.18-9.44-5.37-.73-.32-1.49-.62-2.33-.91-1.22-.42-2.28-.71-3.32-.87h-.72l-.1.35c-.95,3.35-2.14,7.21-3.54,11.48-.53,1.62-1.09,3.3-1.68,5.04-.98,2.89-2.05,5.95-3.2,9.16l-.7,1.95.03.13c.08.37.26.8.54,1.3Z"></path><path d="M535.3,334.82c.96.88,1.92,1.73,2.85,2.5.86.72,1.64,1.34,2.4,1.89.84.63,1.67,1.2,2.48,1.7.87.54,1.68.99,2.42,1.34l.19.09.19-.44-.05.5c.17.08.35.16.52.23,1.35.55,2.6.84,3.77.87h.12s.06,0,.06,0c.99-.2,1.77-.61,2.31-1.22l.1-.17c2.84-8.55,5.01-15.13,6.53-19.8l.91-2.78c.35-1.09.65-2.03.9-2.81.91-2.88.89-2.95.85-3.12l-.08-.18c-.36-.48-.78-1.01-1.26-1.62l-.1-.09c-2.33-1.65-4.62-3.13-6.8-4.41l-.35-.21c-.16-.1-.32-.19-.47-.28-2.43-1.38-4.69-2.43-6.72-3.14-1.21-.42-2.27-.71-3.32-.87h-.72l-.1.35c-2.06,7.25-5.12,16.5-9.08,27.51l-.05.13.03.13c.2.92.99,2.19,2.46,3.91Z"></path><path d="M585.9,445.68l-.12-.27c-1.86-4.16-2.81-9.88-2.81-17.01-.02-1.85,0-3.85.05-5.96v-.34c.04-1.13.08-2.28.14-3.46.29-6.02.9-12.83,1.83-20.23,3.95-31.44,13.82-75.03,29.34-129.55l2.3-8.04.02-.13c0-.64-.54-1.43-1.79-2.61l-.5-.37c-4.73-3.56-9.03-6.1-12.79-7.53-1.17-.45-2.22-.78-3.2-1.01l-.16-.04-1.15.51-5.41,18.75c-14.54,52.08-23.59,93.24-26.9,122.33-.23,2.01-.43,3.98-.61,5.88-.11,1.19-.21,2.37-.3,3.52-.12,1.52-.21,3-.29,4.44-1.07,1.18-2.04,2.23-2.89,3.15-.84.9-1.58,1.69-2.2,2.33l-.72.65c-1.09.99-2.15,1.93-3.18,2.83-3.85,3.36-7.37,6.16-10.45,8.31-1.07.75-2.1,1.43-3.08,2.03-1.06.65-2.05,1.21-3,1.69-.95.48-1.86.87-2.69,1.18l-.23-3.97c-.22-4.26.33-10.88,1.62-19.67l.24-1.6.28-1.31c.17-.82.34-1.66.52-2.5.19-.87.38-1.75.57-2.64l.22-1.01c.69-3.1,1.42-6.28,2.19-9.45.61-2.53,1.25-5.1,1.92-7.74.87-3.4,1.81-6.98,2.8-10.64l.15-.55c.21-.77.42-1.55.64-2.33.22-.79.44-1.59.66-2.39l.24-.86c.2-.71.39-1.41.59-2.13l.02-.63-.08-.12c-.45-.7-.8-1.11-1.09-1.31-.09-.06-.18-.1-.27-.13-.77-.62-1.53-1.2-2.28-1.76-4.2-3.1-8.29-5.34-12.16-6.66l-.16-.06c-.42-.14-.84-.29-1.26-.41-.67-.19-1.33-.36-1.98-.49l-.2-.04-.57.38-.05.15c-1.24,3.55-3.41,11.37-6.44,23.28l-.5,2.19c-.44,1.96-.85,3.87-1.25,5.72-.21.99-.41,1.97-.61,2.93-.18.87-.35,1.73-.51,2.57-.86.09-1.75.19-2.66.32-.98.14-1.99.3-3.02.49-1.06.19-2.14.4-3.26.64-2.85.61-5.96,1.4-9.24,2.36l.13.46h0l-.34-.4-.68.2c-.42.12-.84.25-1.28.37-.5-.74-.97-1.46-1.43-2.17-1.81-2.82-3.33-5.44-4.51-7.82-2.2-4.42-3.31-8.1-3.31-10.93v-2.05c0-1.91.46-3.86,1.37-5.78.42-.89.98-1.83,1.66-2.79,1.42-2,3.35-4.02,5.74-5.99,1.27-1.05,2.66-2.08,4.15-3.1-.03.15-.06.32-.1.5-.12.55-.27,1.19-.48,1.94-.03.08-.06.16-.09.23l-.08.19c-.13.32-.27.62-.44.89-.77,1.33-1.86,2.17-3.35,2.56-.39.1-.84.17-1.52.22-.2.02-.39.03-.67.04l-.48.07v.99l1.18,1c2.09,1.74,3.92,3.14,5.44,4.17.43.29.85.56,1.23.79.5.3.99.57,1.45.79.91.43,1.64.65,2.23.65.28,0,.59-.03.98-.1.29-.05.6-.12.92-.22.33-.09.67-.2,1.04-.35l.16-.11c1-1,1.89-2.12,2.66-3.34,1.2-1.91,2.06-4.08,2.56-6.47.23-1.08.38-2.08.45-3.05.06-.73.09-1.47.09-2.19v-.53c0-.09,0-.18-.01-.27v-.16c-.07-2.17-.57-4.06-1.48-5.6l-.11-.13c-2.1-1.71-4.19-2.97-6.2-3.76l-.22-.08c-1.59-.6-3.13-.9-4.58-.9h-2.05c-2.07,0-4.5.55-7.27,1.66-7.46,4.04-12.97,8.51-16.38,13.29-2.84,3.99-4.28,8.26-4.28,12.71,0,3.57,1.15,7.53,3.43,11.78l.12.22c.14.27.29.54.47.85,1.1,1.49,2.1,2.88,3.04,4.18,4.58,6.36,7.28,10.46,8.02,12.21l-.51.22c-.9.37-1.8.76-2.7,1.17-.8.36-1.61.73-2.41,1.12-2.64,1.26-5.34,2.67-8.02,4.21-.89.51-1.79,1.03-2.68,1.57-.88.53-1.76,1.07-2.64,1.63-.16-.04-.31-.05-.45-.05h-1.1l-.14.16c-.82.91-1.59,1.76-2.24,2.49-6.15,4.32-9.87,7.92-11.37,10.99-.94.79-1.87,1.56-2.76,2.27-.82.65-1.61,1.27-2.38,1.86-1.03.78-2.02,1.51-3.04,2.22-1.04.73-2.06,1.39-3.01,1.98-1.06.65-2.06,1.21-3,1.69-.96.48-1.86.88-2.69,1.17l-.23-3.97c-.24-4.51.39-11.67,1.86-21.27,2.15-10.53,5.01-22.4,8.5-35.28.26-.96.52-1.91.78-2.88l1.5-5.38.02-.63-.08-.12c-.45-.69-.79-1.11-1.09-1.31-.09-.06-.18-.1-.26-.13-2.37-1.89-4.7-3.53-6.92-4.87l-.11-.06c-.6-.36-1.19-.69-1.78-1.01-.59-.31-1.17-.61-1.75-.89-.97-.47-1.85-.85-2.69-1.18-.36-.14-.72-.27-1.19-.42-.53-.18-1.06-.36-1.58-.5-.13-.04-.26-.07-.39-.1l-.57-.14c-.29-.08-.58-.15-.86-.21l-.2-.04-.57.38-.05.15c-1.07,3.06-2.83,9.31-5.23,18.57-.41,1.58-.83,3.24-1.29,5.01-.39,1.73-.76,3.4-1.12,5.04-.97,4.45-1.81,8.63-2.5,12.43-.61,3.33-1.13,6.53-1.55,9.49-.25,1.76-.46,3.44-.64,5.04-.49,4.43-.7,8.24-.62,11.34.24,5.16,1.1,9.1,2.55,11.71l.07.1c.28.29.56.57.92.93,1.07,1.07,2.13,2.06,3.15,2.93,1.14.98,2.28,1.88,3.39,2.66,2.98,2.1,5.87,3.46,8.59,4.05.51.11,1.03.2,1.57.26,1.18.13,1.93.14,3.16,0,.87-.1,1.83-.3,2.91-.62,1.03-.3,1.97-.64,2.87-1.02,1.67-.72,3.53-1.74,5.53-3.01l.3-.19c.24-.15.49-.31.74-.48,1.46-.98,2.99-2.1,4.55-3.33l1.08-.85h-.03c.08-.07.17-.14.25-.21l1.03-.85c.65-.55,1.31-1.12,1.98-1.72.41.27.82.52,1.22.77.28.18.57.35.86.53l.24.14c.49.29.96.56,1.43.82.33.19.66.37.99.54l.18.1c1.44.75,2.82,1.38,4.12,1.87,1.14.43,2.23.74,3.23.94.4.08.79.14,1.29.19l.29.03c.26.02.52.03.77.03h.98c.11,0,.22,0,.33-.01h.26c1.41-.04,2.7-.15,3.96-.36,8.91-1.79,15.87-4.13,20.66-6.93,2.48-1.45,4.44-3.06,5.84-4.8,1.35-1.68,2.19-3.5,2.51-5.42.11-.63.16-1.25.16-1.85,0-2.01-.57-4.36-1.68-7-.11-.25-.23-.51-.35-.78l-.36-.77c-.44-.92-.88-1.77-1.36-2.62-.74-1.31-1.6-2.7-2.56-4.15.18-.06.41-.15.7-.26l.12-.04c1.45-.5,2.88-.97,4.28-1.41,1.11-.35,2.18-.66,3.26-.97l.31-.09c.92-.27,1.82-.51,2.72-.75.78-.21,1.56-.41,2.32-.6-.06.37-.12.73-.18,1.09l-.25,1.49c-.15.98-.3,1.94-.43,2.86l-.02.16c-.15,1.04-.29,2.04-.41,3.02l-.19,1.48c-.13,1.08-.23,2.1-.33,3.11-.1,1.07-.19,2.11-.25,3.09-.11,1.63-.16,3.14-.17,4.51,0,.58,0,1.14.02,1.7.24,5.16,1.1,9.1,2.55,11.71l.2.23c.27.27.53.54.79.8.23.22.45.45.67.66.84.81,1.67,1.58,2.48,2.27,1.14.98,2.28,1.88,3.39,2.66,2.93,2.06,5.76,3.41,8.43,4.02.53.12,1.1.21,1.74.29,1.19.14,1.92.14,3.16,0,.87-.1,1.83-.3,2.91-.62,1.03-.3,1.97-.64,2.86-1.02,1.68-.73,3.49-1.71,5.53-3.01,1.93-1.23,3.95-2.69,6.01-4.34.95-.76,1.98-1.63,3.07-2.57l.16-.15c.85-.74,1.71-1.51,2.58-2.32.67-.61,1.34-1.24,2.02-1.9.01.87.04,1.74.09,2.59l.02.35c.06,1.14.16,2.23.3,3.37l.02.13c.22,1.78.54,3.42.95,4.89.3,1.08.66,2.09,1.07,3,.38.84.79,1.59,1.25,2.26.07.1.14.19.26.36.26.35.52.68.87,1.04.75.54,1.47,1.05,2.18,1.54,1.17.8,2.3,1.55,3.37,2.23,2.78,1.74,5.24,3.04,7.34,3.87,1.57.62,2.98.99,4.23,1.11h.08s.1-.04.1-.04c.4-.08.66-.39.66-.8v-.18l-.05-.21c-.05-.11-.1-.22-.14-.33ZM471.99,416.22c.44-.47,1.06-1.09,1.84-1.86.57-.56,1.23-1.2,1.97-1.91l1.32-1.17c.56-.49,1.11-.98,1.65-1.44.74-.64,1.48-1.25,2.2-1.83l.11-.09c.4-.32.8-.64,1.19-.95,2.27-1.78,4.44-3.32,6.46-4.57.31-.19.62-.37.92-.55l.13-.08c.8-.47,1.47-.84,2.08-1.16.29.54.53,1.11.73,1.73.22.66.36,1.33.43,1.98v.13c.04.26.07.52.07.78v.36c0,.6-.11,1.17-.34,1.75-.26.67-.67,1.28-1.15,1.78-.28.2-.61.4-.96.61-2.23,1.32-5.86,2.76-10.79,4.28l-.66.2c-.81.25-1.64.49-2.51.74l-.49.14c-1.32.37-2.71.75-4.18,1.14ZM500.13,387.89h0s0,0,0,0Z"></path><path class="cls-1" d="M441.22,242.69l24.18,55.91,14.86,35.35c3.08-2.4,6.6-4.67,10.56-6.81l.64-.34.67-.27c1.71-.68,3.36-1.22,4.96-1.62l-43.54-104.17,85.93-102.58-8.1-15.65-115.39,10.99c.22,5.8.2,12.09-.43,18.58l94.61-8.68s-72.17,86.22-72.7,86.86c-.3.37,1.21,2.63,1.42,3.05.97,1.97,1.78,4.15,2.21,6.31.37,1.87.57,4.5-.44,6.23-.89,1.52-2.78,2.57-3.07,4.44l3.64,12.41Z"></path><path class="cls-1" d="M272.65,264.07c.04-.18.09-.36.13-.54-.76-.92-1.3-2.04-1.53-3.29l-1.33-7.05-.12-.62c-.19-1.02-.39-2.04-.57-3.03l-.12-.66c-.18-.97-.35-1.94-.51-2.91l-.08-.44c-.3-1.71-.6-3.47-.94-5.15-.2-.28-.41-.58-.6-.89-.07-.11-.16-.23-.25-.35l-.59-.84c-.84-1.17-1.71-2.49-2.37-4.15-.06-.15-.13-.3-.23-.51l-.13-.3c-.32-.72-.68-1.42-1.06-2.11l-86.57-52.67,50.23-13.5c-.63-1.84-.54-3.9.41-5.73l1.83-3.55c-1.09-1.55-1.56-3.5-1.23-5.46.42-2.44,2.02-4.44,4.19-5.43l.07-.61-82.3,21.3-2.65,17.42,114.32,69.56-1.23,17.75c.91,1.31,1.8,2.66,2.68,4.03,2.25.63,4.5,1.28,6.75,1.92,1.08-3.02,2.39-6.84,2.95-8.88.3-1.09.59-2.2.85-3.29Z"></path><path class="cls-1" d="M298.28,83.63c.92-.39,1.88-.57,2.84-.57,1.71,0,3.41.6,4.76,1.75l1.42,1.21.83-.13c.49-.6,1.04-1.15,1.72-1.59.94-.6,1.97-.96,3.02-1.09l10.06-53.71,38.66,57.29c1.15.16,2.24.37,3.3.58.51.1,1.02.2,1.53.3.08.01.15.03.23.04,1.36.29,2.68.61,3.96.97.1-.15.21-.3.32-.45,1.43-1.85,3.6-2.86,5.82-2.86,1.01,0,2.02.21,2.99.64l4.04,1.8L327.01,0l-17.38,9-19,79.67,3.54-.56c.66-1.99,2.13-3.64,4.12-4.48Z"></path><path d="M433.25,283.49c-.13.63-.26,1.26-.38,1.89l-.12.59c-.08-.31-.14-.62-.18-.92-.13-.92-.14-1.83-.23-2.72-.03-.26-.08-.52-.12-.78-.05-.32-.11-.63-.17-.94s-.14-.62-.23-.92c-.31-1.05-.74-2.05-1.23-3.03-.2-.4-.41-.79-.64-1.18-.33-.58-.68-1.15-1.06-1.71-.25-.37-.5-.73-.75-1.09-.29-.4-.6-.79-.93-1.16-.18-.21-.37-.43-.56-.63-.61-.65-1.25-1.28-1.91-1.91-.47-.45-.95-.9-1.42-1.35,0,0-.01-.01-.02-.02-.24-.23-.48-.47-.71-.71h0s-.02-.02-.03-.03c0,0,0,0,0,0,0,0,0,0,0,0,0,0,0,0,0,0,0,0,0,0,0,0,0,0,0,0,0,0,0,0,0,0,0,0h0s0,0,0,0c0,0,0,0,0,0h0s0,0,0,0c.91,1.45,1.83,2.9,2.74,4.35-.11.09-.23.18-.34.28-.54-.57-1.07-1.15-1.61-1.72-.5-.53-1-1.06-1.5-1.6h0c.23.9.46,1.79.7,2.69-.13-.26-.26-.52-.39-.77-.13-.26-.26-.51-.39-.77-.13-.26-.26-.51-.39-.77-.1-.19-.19-.38-.28-.58-.18-.39-.35-.77-.5-1.16-.15-.39-.28-.78-.39-1.17-.05-.17-.09-.34-.12-.52-.11-.52-.16-1.04-.14-1.57.02-.71.16-1.43.47-2.16.09.47.19.95.29,1.45.3,1.48.61,3.07.93,4.65-.04-.46-.08-.92-.12-1.37-.12-1.43-.24-2.77-.33-3.77.37,1.17.9,2.87,1.43,4.57h0s0-.06,0-.1c-.02-.29-.05-.58-.08-.95-.01-.12-.02-.25-.03-.39,0-.08-.01-.16-.02-.25.36.36.6.61.81.82.07.07.14.14.21.21.37.04.79-.01,1.09.15.88.47,1.76.96,2.68,1.48.44.25.9.51,1.38.78.29.17.58.33.9.51-.32-.58-.72-1.07-1.17-1.5-.36-.35-.75-.67-1.14-.97-.92-.71-1.88-1.34-2.61-2.12-.33-.35-.6-.73-.81-1.16s-.35-.91-.39-1.46c1.14,1.22,2.35,2.51,3.57,3.81l.2-.17s.09-.07.13-.11c-.05-.07-.09-.14-.14-.2-.11-.16-.22-.32-.33-.48-.21-.31-.43-.61-.64-.92l.03-.02c.08-.05.15-.1.23-.15.23.26.46.51.69.77,1.73,1.94,3.46,3.88,5.19,5.82.04-.03.07-.05.11-.08.11-.08.21-.16.32-.24-.96-1.33-1.92-2.66-2.87-3.99-.62-.86-1.24-1.72-1.86-2.58.03-.02.07-.05.1-.07.02-.01.03-.02.05-.04,1.09,1.1,2.18,2.21,3.28,3.31.09.09.18.19.28.28.02-.02.04-.04.06-.06.06-.06.13-.12.19-.19-.6-.68-1.19-1.35-1.79-2.03-.86-.98-1.73-1.96-2.59-2.94.13-.12.25-.25.38-.37.12.04.25.09.37.13.26.09.49.18.67.24.07.02.13.05.18.06-.18-.4-.36-.81-.54-1.22-.21-.46-.41-.92-.61-1.38-.12-.28-.25-.56-.38-.84-.19-.42-.37-.84-.55-1.25,0,0,0,0,0,0h0c-.04.1-.09.22-.14.33-.03.07-.05.13-.08.2-.06.16-.13.32-.2.49-.08.19-.16.39-.25.6-.08.21-.17.41-.26.62-.06-.02-.12-.03-.19-.05l-.19-.05c.15-.86.31-1.72.46-2.59,0-.04.01-.07.02-.11.07-.39.14-.79.21-1.18l-.4-.14c-.14.24-.27.47-.4.71-.5.88-1,1.75-1.49,2.61-.38.67-.76,1.34-1.13,1.97-2.07-1.75-1.87-4.27-2.25-6.65-.08-.51-.21-1.01-.37-1.51-.07-.2-.12-.4-.21-.6.14-.04.27-.08.41-.12.08.25.16.51.25.77.16.5.32,1,.48,1.51.24.75.48,1.51.74,2.3.28-.64.55-1.26.84-1.94.18-.43.38-.89.59-1.37.1-.23.2-.46.31-.72-.17.81-.32,1.55-.46,2.26-.07.32-.13.65-.2.96-.2.99-.4,1.93-.59,2.86.03,0,.07.02.1.02.1.02.2.05.3.07.24-.38.48-.76.73-1.14.23-.37.47-.74.71-1.11.17-.26.34-.53.51-.8.15-.23.29-.46.44-.7-.49.07-.83.12-1.26.18-.03,0-.05,0-.08.01,0-.01.01-.03.02-.04.49-1.03.93-2.06,1.31-3.1.34-.91.63-1.83.86-2.74.17-.66.31-1.32.42-1.98.22-1.33.31-2.67.25-4.02-.06-1.36-.26-2.73-.64-4.14.45,1.13.9,2.26,1.41,3.53.45-.62.79-1.08,1.36-1.88-.5,3.31-1.27,6.22-.66,9.53.21-.27.38-.54.52-.8.95-1.87.27-3.7.48-5.52.25.49.5.99.76,1.5.26.51.52,1.03.8,1.59h0c.43-1.08.56-2.12.53-3.14-.05-1.7-.54-3.35-.78-5.02.56.63,1.13,1.26,1.79,2,.22.25.45.51.7.78-.03-.48-.09-.94-.18-1.38-.62-3.07-2.57-5.08-4.5-7.15.13.05.26.1.4.15s.28.1.43.16c.3.11.63.24,1.03.39-.15-.2-.24-.34-.3-.44-.06-.09-.11-.15-.16-.2,0,0,0,0-.01-.01h0s0,0,0,0c-.2-.19-.41-.35-.62-.48-.07-.04-.13-.08-.2-.11-.15-.09-.31-.16-.46-.23-.07-.03-.15-.06-.23-.08-.16-.05-.33-.1-.5-.13-.06-.01-.12-.03-.19-.04-.04,0-.08-.01-.12-.02-.19-.02-.38-.04-.58-.04,0,0-.01,0-.02,0-.03,0-.05,0-.08,0-.06,0-.12.01-.18.01l-2.19-4.97c1.52-.85,3.06-1.65,4.48-2.62,3.6-2.46,3.89-4.92.97-8.2-1.19-1.34-2.41-2.66-3.62-3.99-.54-.81-1.08-1.62-1.64-2.42-1.87-2.66-3.86-5.22-5.96-7.7-2.13-2.51-4.37-4.94-6.71-7.28-.99-.99-1.52-1.73-1.58-2.45-.01-.12,0-.24,0-.36.01-.12.04-.24.08-.37.19-.6.68-1.24,1.47-2.04.52-.53,1.07-1.04,1.64-1.53.57-.49,1.16-.95,1.76-1.4,2.59-1.92,3.36-4.13,2.48-7.21-.06-.2-.12-.36-.2-.5-.03-.05-.06-.07-.09-.11-.06-.08-.12-.16-.19-.21-.04-.03-.1-.05-.15-.08-.07-.04-.15-.07-.24-.09-.06-.01-.14-.02-.21-.02-.06,0-.12-.02-.19-.02-.07,0-.13,0-.2,0-.89.05-1.79.11-2.69.17-.54.03-1.09.07-1.63.1-.27.01-.54.02-.82.04-.46.02-.91.04-1.37.06-.3,0-.6.01-.9.02-.55,0-1.09.02-1.64.01h0s-.06,0-.1,0c-.12,0-.24.01-.36.02-.11,0-.23,0-.34.02-.13.01-.25.04-.38.06-.1.02-.21.03-.31.06-.12.03-.23.07-.35.1-.1.03-.19.05-.29.09-.11.04-.22.09-.33.14-.09.04-.18.07-.27.12-.11.05-.21.12-.32.18-.08.05-.17.09-.25.14-.11.07-.22.15-.32.22-.07.05-.15.1-.23.16-.11.08-.21.17-.32.25-.07.06-.15.11-.22.18-.09.07-.17.15-.26.23-.09.08-.18.16-.27.24-1.74,1.59-3.66,2.99-5.55,4.42-.38.29-.76.57-1.13.86-.05-.06-.1-.13-.16-.19-.05-.06-.09-.12-.14-.17,1.57-1.65,3.15-3.3,4.73-4.95h0c-.07-.1-.13-.19-.19-.28-.03-.05-.06-.09-.09-.14,0,0,0-.01-.01-.02-.11-.16-.2-.3-.29-.43-.05-.08-.11-.15-.16-.23-5.73-7.58-11.52-15.1-17.16-22.74-.52-.71-1.02-1.43-1.52-2.15-1.65-2.41-3.21-4.9-4.85-7.32-.19-.29-.38-.58-.58-.86-.31-.44-.52-.88-.65-1.32-.26-.88-.2-1.77.06-2.74.13-.48.31-.99.52-1.52,3.63.64,7.27,1.28,10.93,1.92,3.53.62,7.11,1.25,10.73,1.88.01,0,.03,0,.04,0,2.44.43,4.78-1.15,5.24-3.55.31-1.6.57-3.22.93-4.83,1.76-7.67,1.17-17.83,1.17-17.83,0,0-.02,0-.03,0-.1-3.23-1.15-6.44-2.83-9.22-3.06-5-7.24-9.24-11.43-13.34-.3-.28-.67-.5-1.03-.69.62,1.44,1.44,2.78,2.06,4.22-2.08-2.18-4.39-4.36-7.26-5.62,4.07,4.98,6.54,11.67,5.17,18.05-1.67-4.32-4.08-8.46-7.59-11.55-4.88-4.32-11.22-6.74-17.57-8.06-2.34-.4-4.68-1.03-7.07-1.02,2.97,1.16,5.92,2.46,8.74,3.95,2.56,1.5,5.18,3.15,6.74,5.73-1.57-1.48-3.08-3.03-5.03-3.99.74.76,1.41,1.58,2.02,2.47,1.45,2.07,2.97,4.13,4.36,6.26-1.88-2.19-3.96-4.24-6.38-5.84-1.86-1.15-3.88-2.11-6.02-2.65.77.69,1.73,1.13,2.56,1.72,3.92,2.72,7.25,6.43,8.88,10.91-2.02-2.76-4.5-5.26-7.52-6.97-2.56-1.53-5.55-1.95-8.38-2.73-3.72-.83-7.26-2.24-10.67-3.91,4.07,3.37,9.28,4.97,13.35,8.3-3.88-1.95-7.85-3.77-11.56-6.02,3.73,3.02,7.7,5.9,10.6,9.78-1.03-.66-1.93-1.51-2.99-2.13-2.66-1.75-10.11-7.12-13.27-7.47,1.76,1.03,3.33,2.29,4.77,3.71-3.09-.42-5.72-.69-8.63-1.79-7.11-2.85-9.95-2.89-16.18-7.34-1.43-1.03-2.67-2.23-4.07-3.27.73,3.31,2.3,6.34,3.87,9.31-1.79-1.06-3.2-2.71-5.06-3.6.22,1.16.7,2.24,1.19,3.33-5.11-2.86-9.9-6.21-14.37-9.96-.35,4.97.15,10.16,2.25,14.73-6.28-2.29-12.99-3.47-19.67-3.46,2.55,1.3,5.49,2.4,7.12,4.85-5.1-1.02-10.35-1.5-15.55-1-1.44.16-2.91.29-4.31.73,1.4,1.07,2.93,1.94,4.1,3.24-7.65.87-14.5,5.46-19.06,11.42,1.52-.84,3.08-1.68,4.77-2.1,0,.06-.06.19-.06.26-5.95,3.77-10.45,9.44-13.53,15.63.97-.73,1.77-1.65,2.8-2.28,2.07-1.3,4.38-2.15,6.79-2.56-.83,1.05-2.16,1.59-3.19,2.42-5.48,4.14-9.52,9.78-14.57,14.4-2.83,2.48-5.86,4.93-7.62,8.29,1.84-1.52,3.77-3.01,6.08-3.74-.15.32-.33.63-.52.94-.31.19-.62.39-.93.59-.04.03-.08.05-.12.08.15.03.28.05.42.07.05,0,.1.02.15.03-.26.39-.51.79-.75,1.19-.83.11-1.7.22-2.61.33.68.34,1.32.67,1.96.99-.67,1.5-1.25,3.06-1.4,4.7,1.64-1.49,3.92-2.02,6.08-2.25-.26.34-.5.7-.71,1.07-.14.04-.29.07-.43.11-.13.03-.27.07-.4.1.02.1.04.2.05.3.08,0,.16.02.24.03.07,0,.15.02.22.03-.93,1.83-1.33,3.89-1.14,5.95.2-.12.39-.23.59-.35.05.06.09.12.15.17.54.42.83.81.94,1.2.18.65-.13,1.29-.63,2.02-.17.25-.29.54-.41.84-.06.15-.12.31-.19.46,1.9,1.02,3.73,1.99,5.87,3.14-.71.15-1.16.25-1.71.37-.18.04-.37.08-.59.13.81.57,1.5,1.05,2.14,1.5.39.27.77.54,1.14.8,0,.16.02.32.05.48.07.46.23.87.53,1.11.2.16.39.32.57.49,1.06,1.02,1.63,2.25,1.93,3.68.05.24.09.48.13.73.64,4.36,1.45,8.69,2.12,13.04.22,1.41.5,2.8.84,4.15s.75,2.68,1.21,3.97c1.86,5.13,4.75,9.75,8.89,13.75,1,.97,1.96,1.97,2.86,3,.45.52.89,1.04,1.31,1.58,1.87,2.37,3.46,4.94,4.72,7.75.16.36.33.71.47,1.07.31.77.79,1.47,1.3,2.16.21.29.41.57.62.86.17.24.34.47.49.71.22.34.47.67.72,1,.16.22.32.45.46.68.21.34.38.69.47,1.06.75,3.31,1.26,6.67,1.88,10.01.04.2.08.41.12.61.28,1.47.56,2.94.84,4.41.27,1.38.53,2.76.79,4.13.69-.06,1.3-.11,1.88-.16.58-.05,1.12-.09,1.69-.14,0,.09,0,.15,0,.23,0,.22.02.43,0,.61-.49,3.15-1.12,6.25-1.86,9.31-.29,1.2-.6,2.39-.93,3.57-1,3.57-2.18,7.06-3.55,10.48,0,0,0,0,0,0-1.24-.36-2.48-.71-3.73-1.07-1.23-.35-2.46-.7-3.7-1.05-2.84-.8-5.69-1.6-8.53-2.38,1.89,2.89,3.73,5.9,5.48,9.04.74,1.33,1.47,2.68,2.18,4.05.71,1.36,1.4,2.74,2.07,4.15h0c1.64,3.41,3.18,6.96,4.6,10.65,4.05,10.49,7.16,22.09,8.87,34.87.2,1.49.38,3,.54,4.53.15,1.45.28,2.91.4,4.38.14,1.8.26,3.63.35,5.47.13,2.89.19,5.84.18,8.84,2.54-2.04,4.81-3.55,6.92-4.63,2.42-1.38,4.75-2.51,6.99-3.43,1.93-.79,3.8-1.42,5.61-1.88,2.51-.63,4.93-.95,7.26-.95h.99c.13,0,.25,0,.38,0,1.07.01,2.16.09,3.27.23,2.31.29,4.7.85,7.2,1.69,3.11-3.18,6.78-5.37,11.47-5.37h.61l.61.06c5.69.55,11.48,2.72,17.71,6.64l.31.21s.08.06.13.09c-.1-.67-.26-1.27-.46-1.8l-4.03-10.4,14.31-7.04,1.92.38,2.28.45c.49.1.99.22,1.5.35,1.16.31,2.37.72,3.63,1.23,3.68,1.5,7.89,3.92,13.03,7.46,6.3,4.36,10,9.25,11.04,14.59.7-1.65,1.4-3.37,2.09-5.11-.73-9.76-2.11-21.07-4.57-22.59-1.77-1.09-8.49-4-16.96-7.9-1.14-.52-2.31-1.07-3.5-1.62-1.15-.54-2.31-1.08-3.49-1.65l1.08-3.16c.15-1.95.59-3.89.67-5.84.03-.59-.06-1.25-.23-1.86-.07-.24-.16-.47-.26-.68-.07-.14-.13-.29-.21-.41-1.12-1.68-2.3-3.33-3.47-4.98-1.18-1.65-2.36-3.3-3.49-4.97-.06-.09-.11-.19-.17-.29-.46-.78-.77-1.74-.77-2.6,0-2.18.05-4.35.09-6.53,0-.17,0-.35,0-.52.06-3.1.13-6.2.19-9.31.06-.06.13-.11.19-.17.98-.87,1.96-1.8,5.11-.66,1.4,3.52,2.04,5.11,3.44,8.63-.39.97.52,1.94,1.38,2.91.85.96,1.7,1.93,2.55,2.89l.26-.24h0s.06.06.18.17c.12.11.3.27.56.48.5.41,1.28,1,2.37,1.71-.2-.35-.39-.7-.59-1.04.52.55,1.03,1.09,1.55,1.63.01.01.02.02.04.04.09.06.2.12.3.18.89.54,1.93,1.12,3.15,1.73.95.48,2.04,1.01,3.29,1.56h0c-.07-.18-.13-.38-.19-.57-.05-.16-.11-.31-.16-.47.21.14.44.3.68.47.24.16.49.33.75.49.93.56,1.87,1.12,2.81,1.68.6.23,1.23.46,1.87.69.19.07.38.14.58.21-.04-.07-.09-.13-.13-.2-.55-.85-1.11-1.7-1.66-2.55.09-.05.19-.11.28-.16.71.65,1.42,1.3,2.13,1.95.68.62,1.35,1.24,2.03,1.86.56.18,1.14.37,1.73.55-.25-.29-.48-.6-.7-.92-.41-.59-.76-1.24-1.09-1.9-.2-.4-.4-.81-.59-1.23.59.7,1.18,1.4,1.8,2.13.31.37.62.74.95,1.13.33.39.66.78,1.01,1.2.04.01.07.02.11.03.07.02.15.04.22.07-.11-.6-.17-.96-.27-1.51.16.18.31.34.46.51.44.49.87.97,1.28,1.43.48.14.97.27,1.46.4.13.04.25.07.39.11-.02-.07-.04-.14-.06-.21.1.09.2.18.3.27,1.76.47,3.63.93,5.62,1.38.66.15,1.34.3,2.02.45-.23-.41-.46-.82-.69-1.23.17-.09.33-.18.5-.28.12.2.24.4.36.6.22.36.44.72.65,1.08.25.05.5.11.76.16.03,0,.07.01.1.02.03,0,.07,0,.13,0,.17,0,.46-.03.83-.07.03,0,.05,0,.08,0-.59-.45-1.08-.99-1.5-1.56-.11-.15-.21-.3-.3-.46-.29-.49-.54-.98-.68-1.51.81.61,1.63,1.22,2.44,1.83.63.47,1.25.94,1.88,1.41.34-.07.69-.14,1.07-.23-.16-.1-.31-.21-.46-.31-.2-.13-.4-.27-.59-.41-1.92-1.44-3.48-3.38-5.09-5.24.92.74,1.81,1.53,2.72,2.29.91.76,1.84,1.49,2.84,2.11.49.31,1.01.58,1.53.84.36.02.84.05,1.2.07.21-.08.42-.16.63-.24.16-.07.33-.13.49-.2-.46-.09-.91-.21-1.35-.35-1.83-.58-3.44-1.62-4.43-2.95-.22-.29-.41-.59-.57-.91.47.29.94.6,1.41.89.83.53,1.66,1.05,2.49,1.58.1-.1.21-.21.31-.31-.59-.62-1.09-1.27-1.51-1.95-.85-1.37-1.41-2.87-1.76-4.53-.18-.83-.3-1.7-.39-2.61.13.35.25.65.35.92,0,0,0,0,0,0,.04.1.08.2.11.29.02.06.04.11.06.16.02.06.05.13.07.19.03.07.05.14.08.2.02.05.04.09.05.14.03.08.06.16.09.23,0,.02.01.04.02.05.04.09.07.18.1.25,0,0,0,0,0,.01.03.07.05.13.08.19,0,.01.01.02.02.04.02.04.04.09.05.12,0,.01.01.03.02.04.01.03.03.06.04.09,0,.01.01.02.02.03.01.02.02.05.03.06,0,0,0,.02.01.02.01.02.03.04.04.06,0,0,0,0,0,0,.01.02.02.03.03.04,0,0,0,0,0,0,0,0,.01.01.02.01,0,0,0,0,0,0,0,0,0,0,.01,0,0,0,0,0,0,0,.02,0,.04-.01.07-.03.96,1.83,1.93,3.68,2.9,5.53h0c.13-1.1-.7-2-.78-3.03,0-.03-.01-.06-.01-.09,0-.15,0-.31.04-.47.03-.15.09-.3.16-.46.07-.16.16-.31.29-.48.67,1.45,1.12,2.9,1.94,4.11.36.53.8,1,1.25,1.45.15.15.3.31.46.46.29-.18.58-.37.86-.57-.75-.77-1.37-1.65-1.87-2.54-.93-1.66-1.38-3.35-1.1-4.47.04-.16.09-.31.16-.44.5,1.21,1.01,2.48,1.54,3.75.33.8.66,1.61.99,2.42.01,0,.03-.01.04-.02.14-.05.29-.11.43-.16h0c-.14-.8-.28-1.6-.4-2.27.57.84,1.13,1.66,1.69,2.49.33-.32.63-.67.92-1.04.21-.27.42-.55.62-.84.04-.9.1-1.81.18-2.71.01-.14.02-.27.04-.41.1-1.13.21-2.26.33-3.39.07-.72.15-1.45.21-2.17.02,0,.04,0,.06,0,.06,0,.12-.02.18-.02.06.29.11.58.17.88.17.88.34,1.8.54,2.83.05-.22.09-.43.14-.65.32-1.5.62-2.86.9-4.19-.02.2-.03.39-.05.59-.08.9-.16,1.8-.2,2.7,0,.2-.02.4-.04.6-.02.2-.04.4-.05.6-.08.93-.11,1.85.31,2.67.07.14.16.27.26.4.07.09.13.19.22.28.01-.1.03-.19.04-.29.02-.14.04-.28.06-.42.57-4.33,1.13-8.68,1.7-13.03-.08-.01-.16-.03-.24-.04ZM402.11,124.7c-.05.72-.09,1.45-.14,2.18-.06-.37-.14-.74-.22-1.09.13-.36.25-.72.36-1.08ZM399.89,121.03c-.38-.68-.74-1.25-1.04-1.68-.24-3.33-1.15-6.61-2.43-9.68,2.33,3.32,3.26,7.35,3.47,11.36ZM393.9,111.64l-.03.11c-.05-.12-.1-.25-.14-.36.06.08.12.17.17.26ZM357.49,233.07c-.33.65-.86,1.2-1.68,1.6-.24.12-.48.21-.72.3-.07.03-.15.05-.22.07-.17.05-.33.1-.5.13-.09.02-.17.03-.26.05-.15.03-.31.05-.46.06-.09,0-.17.01-.26.02-.12,0-.23,0-.35,0-.17,0-.34-.02-.51-.05-.11-.02-.21-.04-.32-.06-.17-.04-.33-.09-.5-.14-.1-.03-.2-.07-.3-.11-.17-.07-.34-.17-.51-.26-.08-.05-.17-.09-.25-.14-.24-.16-.48-.34-.71-.55h0c-.91-.74-1.74-1.58-2.45-2.51-1.7-2.23-3.44-4.4-5.41-6.34-.38-.37-.76-.74-1.16-1.09-1.39-1.25-2.9-2.38-4.58-3.34-.71-.41-1.22-1.05-1.72-1.7-.02-.03-.05-.06-.08-.09-.09-.11-.18-.23-.28-.34-1.96-2.39-3.74-4.9-5.24-7.56-.89-1.58-1.68-3.21-2.35-4.91-.22-.57-.43-1.14-.62-1.72-.08-.24-.15-.48-.22-.71-1.6-5.25-1.64-10.48,1.41-15.41.3-.49.63-.95.97-1.39.13-.16.27-.3.39-.45.14-.16.27-.31.41-.47l.73-.7c.24-.22.48-.44.73-.63.17-.13.35-.25.52-.37.24-.17.49-.34.74-.49.19-.11.38-.21.57-.31.25-.13.51-.26.77-.38.2-.09.4-.16.6-.24.26-.1.52-.19.79-.27.21-.06.41-.11.62-.16.27-.06.53-.12.8-.16.21-.03.42-.06.63-.09.27-.03.54-.04.81-.05.22,0,.45-.02.67-.01.19,0,.39.02.58.03.26.02.51.04.76.08.19.03.39.06.58.1.25.05.51.11.76.17.19.05.38.1.57.16.25.08.5.17.75.27.18.07.37.14.55.22.25.11.5.24.75.38.17.09.35.18.52.28.25.15.5.32.75.49.15.11.31.21.46.32.27.2.53.43.78.66.12.11.25.21.37.32.37.35.73.73,1.08,1.14.46.54.9,1.09,1.34,1.64,1.32,1.66,2.57,3.38,3.83,5.08.1.13.18.3.25.48.03.08.06.16.08.25.04.17.07.33.06.48,0,.07-.02.14-.04.21-.08.23-.16.46-.24.7-.78,2.27-1.65,4.49-2.77,6.57-.31.57-.63,1.14-.98,1.69-1.04,1.66-2.28,3.21-3.79,4.6-.07.06-.14.12-.21.18-.22.16-.5.33-.88.59-.03.02-.05.03-.07.05.09-.2.17-.38.25-.56.28-.62.53-1.18.76-1.7.19-.44.38-.87.53-1.3,1.83-5.01,1.5-9.82-1.22-14.29-.18-.3-.37-.59-.58-.89,0,0,0,0,0,0-.22-.32-.46-.62-.7-.91-.05-.06-.1-.12-.14-.17-.24-.28-.48-.54-.74-.78-.05-.04-.09-.09-.14-.13-.25-.23-.5-.45-.76-.65-.03-.02-.05-.04-.08-.06-.28-.21-.56-.39-.85-.57-.06-.04-.12-.07-.18-.11-.29-.17-.58-.32-.88-.45-.04-.02-.08-.03-.12-.05-.28-.12-.56-.22-.85-.3-.05-.01-.1-.03-.15-.05-.3-.08-.61-.15-.91-.2-.07-.01-.13-.02-.19-.03-.31-.04-.62-.07-.94-.07,0,0-.01,0-.02,0-.02,0-.04,0-.06,0-.26,0-.51.02-.77.05-.07,0-.15.02-.22.03-.28.04-.56.09-.83.17,0,0,0,0,0,0-.4.11-.75.25-1.1.4-2.34.97-3.8,2.72-4.66,4.89-.33.83-.57,1.73-.75,2.67-.27,1.46-.33,2.89-.2,4.31.21,2.36.93,4.65,1.99,6.84.67,1.39,1.43,2.73,2.23,4.03,1.16,1.9,2.43,3.71,3.83,5.43,1.81,2.22,3.8,4.29,5.95,6.25.66.6,1.33,1.19,2.01,1.76.06.05.14.1.21.14.2.13.41.25.61.38-.05-.11-.12-.21-.17-.32-.29-.56-.61-1.08-.95-1.57-.35-.51-.73-.99-1.11-1.47-1.68-2.11-3.44-4.16-5.05-6.31-.3-.41-.61-.81-.9-1.22-.64-.92-1.19-1.98-1.58-3.07-.2-.56-.36-1.13-.44-1.69-.17-1.25-.24-2.48-.21-3.71.05-1.84.3-3.66.72-5.45.42-1.79.99-3.56,1.68-5.31.06-.15.13-.29.2-.43.24-.43.56-.87.93-1.49.26,2.39.42,3.81.83,4.7.16.35.36.63.62.85.72.59,1.89.75,3.98,1.05-.89,1.29-1.79,2.55-2.66,3.82-.36.52-.72,1.04-1.07,1.57-1.27,1.93-1.62,4.35-.79,6.5.92,2.38,2.3,4.38,4.18,5.97.6.51,1.25.97,1.95,1.4.88.53,1.75,1.07,2.59,1.64,1.07.72,2.08,1.5,3.04,2.34.37.32.73.66,1.07,1.01.68.68,1.32,1.41,1.91,2.21.18.24.36.48.53.73.01.02.05.03.1.03,0,0,0,0,.02,0,.05,0,.1,0,.13,0h0c-.12-1.41-.24-2.82-.37-4.25-.2-2.38-.41-4.79-.63-7.34-.35.63-.65,1.19-.95,1.74-.15.27-.3.54-.45.82s-.3.55-.46.85c-1.11-2.35-1.51-4.6-1.45-6.87.04-1.36.24-2.74.55-4.15,1.6,1.62,3.11,3.12,4.57,4.62.49.5.97,1,1.44,1.5.08.09.15.19.2.3.17.34.24.78.28,1.16.52,5.49,1.01,10.99,1.5,16.49.1,1.15.02,2.25-.45,3.16ZM415.59,235.18c-1.71,1.76-3.05,3.79-4.32,5.85-1.35,2.19-2.63,4.41-4.19,6.4-.11.14-.22.29-.34.44-1.55-1.72-3.14-3.37-4.58-5.14-.13-.16-.25-.34-.37-.53-.11-.19-.21-.39-.3-.6-.17-.41-.28-.85-.31-1.26-.19-2.57-.35-5.13-.51-7.7-.15-2.57-.3-5.14-.46-7.71,0-.09,0-.19-.02-.28-.02-.29-.06-.59-.2-.79-.45-.61-.88-1.24-1.32-1.87-.35-.51-.7-1.02-1.04-1.53-.52-.77-1.03-1.53-1.56-2.28-1.32-1.88-2.71-3.69-4.36-5.23-.75-.7-1.51-1.38-2.28-2.05-1.01-.88-2.04-1.73-3.08-2.58-.58-.47-1.16-.93-1.74-1.39-3.15-2.49-6.38-4.9-9.51-7.41-.27-.22-.61-.52-.83-.82-.07-.1-.13-.2-.17-.3-.04-.1-.06-.19-.05-.28.21-1.59.47-3.17.73-4.76.13-.79.27-1.58.4-2.37s.27-1.58.4-2.37c3.04.06,5.84.06,8.64.21.36.02.72.08,1.09.17.33.08.67.17.98.31.22.09.42.2.62.31,1.71,1.03,3.38,2.12,5.05,3.21.84.55,1.67,1.1,2.51,1.64.99-1,1.99-1.97,3.02-2.89,1.03-.92,2.08-1.8,3.17-2.62,2.18-1.64,4.49-3.07,7.01-4.21,1.68-.76,3.45-1.39,5.34-1.88-.1.24-.18.43-.25.6-.04.11-.08.2-.12.29-.03.08-.06.15-.1.22-.79,1.7-1.61,3.38-2.39,5.09-.26.57-.51,1.14-.75,1.71-.18.43-.3.86-.34,1.26s-.03.81.06,1.19c.19.83.69,1.59,1.52,2.25.15.12.27.26.4.4.12.13.25.26.36.4.13.16.26.32.39.47-.09.11-.18.22-.26.33-2.71-.63-5.43-1.26-8.14-1.9-.22-.05-.46-.08-.71-.08,0,0,0,0,0,0-.02,0-.04,0-.07,0-.22,0-.44.03-.66.07-.08.02-.17.04-.25.06-.16.04-.33.08-.49.13-.1.03-.19.07-.29.11-.15.06-.3.12-.44.19-.1.05-.19.1-.28.15-.14.08-.28.16-.41.25-.09.06-.18.12-.26.18-.13.1-.25.2-.37.3-.07.06-.15.13-.22.2-.12.12-.22.24-.32.37-.05.06-.11.12-.15.18-.14.19-.25.39-.33.6,1.27.67,2.53,1.34,3.77,2,.86.45,1.71.91,2.53,1.34.22-.3.38-.55.53-.75.14-.2.26-.36.4-.51.66-.68,1.46-1.25,2.02-2,.1-.13.2-.24.3-.34.03-.03.05-.05.08-.08.08-.08.17-.14.25-.2.02-.01.04-.03.06-.04.11-.06.22-.11.33-.15.01,0,.03,0,.04,0,.01,0,.03,0,.04,0,.05-.01.1-.01.14-.02.05,0,.09-.02.14-.02,0,0,0,0,0,0,.03,0,.07,0,.1,0h0c.07,0,.15.01.23.02t0,0s.08,0,.12.02c.11.02.23.06.36.1,0,0,0,0,0,0,.55.21,1.1.43,1.75.69.22.09.45.18.69.28-.97.59-1.71,1.04-2.32,1.42.36,1.15.64,2.22.98,3.24.11.34.23.68.36,1.01,1.26,3.21,2.39,6.44,3.16,9.73.11.47.21.94.31,1.41.19.94.35,1.89.47,2.85.36,2.87.4,5.79-.04,8.8-.02.11,0,.22.05.35.13.37.47.78.76,1.05,1,.98,2.06,1.93,3.15,2.91.34.31.67.61,1.03.93-1.71.9-3.12,2.02-4.34,3.28ZM418.82,267.96c-.09-7.73-.05-4.18-.13-11.91.14,0,.29,0,.43-.01.06,1.68.13,3.37.19,5.05.09,2.3.17,4.59.26,6.89h-.74ZM431.25,289.43s0-.07.01-.11c0-.07.01-.15.02-.22,0-.02.01-.05.02-.07,0,.01,0,.03,0,.04,0,.02,0,.04,0,.05,0,0,0,0,0,0h0s0,0,0,0c0,0,0,0,0,0h0s0,0,0,0c-.02.1-.04.2-.07.3ZM431.3,289.03c-.23-1.51-.45-3.03-.7-4.66-.07-.44-.13-.88-.2-1.34.97,1.63,1.35,2.83,1.27,4.14-.04.59-.15,1.19-.37,1.87Z"></path></g></svg>